<?xml version="1.0" standalone="no"?>
<!DOCTYPE svg PUBLIC "-//W3C//DTD SVG 20010904//EN"
 "http://www.w3.org/TR/2001/REC-SVG-20010904/DTD/svg10.dtd">
<svg version="1.0" xmlns="http://www.w3.org/2000/svg"
 width="783.000000pt" height="341.000000pt" viewBox="0 0 783.000000 341.000000"
 preserveAspectRatio="xMidYMid meet">

<g transform="translate(0.000000,341.000000) scale(0.100000,-0.100000)"
fill="#000000" stroke="none">
<path d="M0 1705 l0 -1705 3915 0 3915 0 0 1705 0 1705 -3915 0 -3915 0 0
-1705z m1505 1644 c199 -81 328 -287 311 -496 -15 -186 -140 -356 -314 -424
-48 -20 -76 -23 -177 -23 -102 0 -128 3 -174 22 -311 130 -414 495 -215 759
66 87 181 163 278 183 77 17 225 6 291 -21z m3949 -946 c-26 -49 -52 -96 -58
-105 -8 -14 -24 -18 -72 -18 l-62 0 37 105 36 105 83 0 84 0 -48 -87z m984
-420 l-3 -468 -67 -3 -68 -3 0 48 0 47 -32 -31 c-59 -55 -94 -68 -193 -68 -75
0 -98 4 -140 25 -137 67 -213 225 -185 383 45 248 314 366 503 222 l47 -36 0
176 0 175 70 0 70 0 -2 -467z m-2482 425 c52 -27 114 -79 114 -96 0 -5 -19
-30 -41 -56 l-42 -47 -31 30 c-42 40 -95 61 -156 61 -87 0 -130 -34 -130 -104
0 -57 39 -91 184 -161 189 -91 239 -147 239 -270 0 -101 -54 -185 -151 -232
-51 -25 -68 -28 -157 -28 -93 0 -105 2 -167 33 -43 21 -83 51 -112 83 -25 28
-46 54 -46 58 0 4 22 28 48 54 l48 48 25 -35 c33 -46 68 -73 120 -91 116 -41
229 11 229 105 0 59 -30 86 -164 150 -139 66 -180 95 -218 151 -69 103 -38
258 66 328 63 41 104 52 201 48 73 -3 99 -8 141 -29z m-3203 -134 c159 -36
230 -82 467 -302 l185 -172 195 195 c171 170 203 198 261 224 262 118 523 88
697 -82 66 -65 139 -183 158 -256 23 -90 16 -252 -15 -341 -36 -106 -97 -198
-189 -288 l-84 -83 53 -49 c30 -27 57 -49 61 -50 4 0 36 -35 69 -77 162 -203
187 -395 78 -603 -53 -102 -158 -225 -229 -268 -174 -104 -403 -104 -590 0
-74 42 -130 85 -220 171 -41 40 -115 110 -163 156 l-89 83 -201 -200 c-218
-216 -226 -221 -386 -268 -63 -18 -107 -24 -180 -24 -156 0 -272 45 -377 147
-120 115 -173 223 -181 368 -12 209 80 412 254 559 l52 44 -57 48 c-118 99
-202 207 -244 312 -19 48 -23 76 -23 177 0 114 2 124 33 194 63 142 189 291
284 334 140 64 254 79 381 51z m3887 -104 c25 -12 57 -34 73 -48 l27 -26 0 42
0 42 70 0 70 0 -2 -332 -3 -333 -65 0 -65 0 -3 36 -3 37 -49 -33 c-70 -47
-111 -58 -194 -53 -128 9 -240 92 -285 214 -31 80 -27 226 8 294 45 88 129
157 218 180 59 15 153 6 203 -20z m2409 -1 c66 -28 144 -112 165 -176 14 -46
20 -103 17 -170 l-1 -33 -255 0 c-169 0 -255 -3 -255 -10 0 -50 62 -119 126
-140 62 -21 179 -8 250 26 l62 29 26 -47 c15 -27 24 -53 21 -58 -4 -6 -29 -22
-56 -35 -174 -89 -380 -67 -489 51 -69 75 -85 122 -85 244 0 86 4 113 21 151
25 54 82 120 128 149 86 53 228 61 325 19z m646 7 c28 -13 61 -35 75 -50 l24
-27 -42 -41 -41 -42 -23 21 c-73 68 -208 54 -208 -22 0 -37 26 -57 130 -101
105 -44 173 -98 190 -150 28 -84 -12 -181 -96 -230 -61 -36 -168 -44 -242 -20
-52 17 -152 97 -152 120 0 7 18 29 39 50 l39 38 40 -40 c40 -40 91 -62 142
-62 37 0 88 35 96 66 11 42 -22 74 -121 116 -140 60 -186 101 -200 179 -15 80
49 185 127 208 65 19 169 13 223 -13z m-2515 -213 c0 -239 5 -265 62 -306 40
-30 116 -34 165 -9 68 35 73 57 73 311 l0 221 70 0 70 0 0 -237 c0 -229 -1
-240 -24 -288 -46 -99 -119 -146 -237 -153 -109 -6 -177 16 -238 76 -75 75
-81 104 -81 374 l0 228 70 0 70 0 0 -217z m-1172 -709 c119 -59 180 -205 138
-332 -21 -64 -82 -133 -141 -161 l-45 -21 77 -117 c42 -65 92 -143 113 -173
20 -30 40 -61 44 -68 5 -9 -13 -12 -81 -12 l-89 0 -110 178 -110 177 -57 3
-57 3 0 -181 0 -180 -75 0 -75 0 0 455 0 455 208 0 c204 0 209 -1 260 -26z
m680 -216 c18 -5 53 -25 77 -44 l45 -34 0 40 0 40 70 0 70 0 0 -335 0 -335
-70 0 -70 0 0 40 0 40 -45 -34 c-62 -48 -104 -59 -199 -54 -128 7 -220 69
-274 187 -38 79 -43 211 -12 293 61 164 238 249 408 196z m823 4 c4 -4 5 -35
2 -69 l-6 -62 -48 6 c-71 8 -132 -18 -167 -70 -27 -40 -27 -41 -30 -259 l-3
-218 -70 0 -69 0 0 335 0 335 65 0 65 0 0 -42 1 -43 20 28 c23 30 66 56 114
68 33 9 115 3 126 -9z m479 -14 c25 -10 57 -31 73 -45 l27 -27 0 42 0 42 70 0
70 0 0 -335 0 -336 -67 3 -68 3 -5 39 -5 38 -20 -22 c-11 -13 -42 -33 -70 -46
-61 -29 -167 -32 -239 -8 -64 22 -148 101 -183 172 -25 51 -28 67 -28 162 0
95 3 110 27 157 39 72 78 114 138 147 87 48 190 53 280 14z m721 17 c46 -16
122 -71 117 -85 -2 -4 -20 -27 -41 -50 -33 -36 -40 -40 -50 -27 -25 31 -82 57
-128 57 -76 0 -114 -58 -71 -108 9 -12 59 -39 111 -61 117 -51 158 -82 183
-139 41 -93 0 -193 -101 -245 -45 -22 -67 -27 -131 -27 -66 0 -86 4 -138 31
-34 17 -76 47 -92 67 l-31 37 46 42 46 42 30 -34 c61 -69 179 -85 226 -30 47
55 17 98 -102 146 -112 45 -156 76 -182 129 -53 103 -3 214 116 256 49 18 138
17 192 -1z"/>
<path d="M6026 2056 c-51 -19 -102 -70 -122 -122 -26 -67 -16 -162 22 -216 94
-137 313 -108 364 48 7 20 10 66 8 104 -3 54 -9 75 -33 109 -50 74 -156 107
-239 77z"/>
<path d="M4465 2056 c-115 -43 -168 -190 -111 -311 13 -27 32 -58 42 -67 55
-48 158 -62 229 -29 85 38 135 138 121 236 -9 57 -61 133 -107 157 -50 26
-125 32 -174 14z"/>
<path d="M6825 2059 c-53 -31 -105 -97 -105 -134 0 -13 25 -15 185 -15 141 0
185 3 185 13 -1 30 -41 96 -71 118 -27 19 -49 24 -104 27 -40 1 -79 -2 -90 -9z"/>
<path d="M3690 1005 l0 -135 106 0 c119 0 166 15 189 59 36 72 22 150 -34 188
-30 21 -46 23 -147 23 l-114 0 0 -135z"/>
<path d="M4570 920 c-157 -28 -224 -222 -123 -358 49 -65 164 -93 246 -58 78
33 121 104 122 201 0 59 -4 78 -27 117 -45 75 -129 113 -218 98z"/>
<path d="M5849 920 c-54 -9 -106 -47 -136 -98 -23 -38 -27 -58 -28 -117 0 -62
4 -78 30 -121 43 -69 98 -96 187 -92 55 3 75 9 109 33 98 70 118 221 42 323
-42 56 -125 85 -204 72z"/>
</g>
</svg>
