<svg width="192" height="32" viewBox="0 0 192 32" fill="none" xmlns="http://www.w3.org/2000/svg">
<g clip-path="url(#clip0_2_17167)">
<path d="M12.8189 28.5404C10.7998 28.5932 8.79544 28.1937 6.9621 27.3731C5.41789 26.6629 4.05696 25.6278 2.97862 24.3435C1.97568 23.1305 1.20953 21.7507 0.71773 20.2717C0.254386 18.903 0.0122813 17.4733 -1.39402e-05 16.033V15.3034C-0.00751937 13.7867 0.234768 12.2784 0.71773 10.8355C1.21339 9.36918 1.99828 8.00993 3.02886 6.83312C4.10735 5.59843 5.45569 4.61111 6.97645 3.94252C8.76137 3.18252 10.6973 2.81243 12.6466 2.85854C14.695 2.81362 16.7271 3.21992 18.5895 4.04675C20.2237 4.78657 21.622 5.93865 22.6376 7.38206C23.6681 8.88092 24.2948 10.6056 24.4607 12.3989H19.537C19.3822 11.3855 18.9594 10.428 18.3096 9.6195C17.6804 8.85123 16.8572 8.25294 15.9195 7.88236C14.8792 7.48016 13.7667 7.28177 12.6466 7.29868C11.5114 7.26733 10.3819 7.46615 9.33065 7.88236C8.39287 8.26952 7.56554 8.87023 6.91903 9.63339C6.26614 10.4242 5.77857 11.3304 5.48355 12.3016C5.13539 13.4023 4.9659 14.5485 4.98113 15.6995C4.96899 16.8298 5.13849 17.955 5.48355 19.0348C5.78503 20.0181 6.28786 20.9327 6.9621 21.7239C7.63079 22.4937 8.47303 23.1046 9.42396 23.5097C10.4974 23.9481 11.654 24.1635 12.8189 24.142C14.5204 24.1859 16.1913 23.6986 17.5847 22.7523C18.2243 22.3119 18.7638 21.7493 19.1699 21.0991C19.5761 20.449 19.8402 19.7251 19.9461 18.9723H24.877C24.6575 20.6772 24.0309 22.3092 23.0467 23.739C22.026 25.2179 20.6262 26.415 18.9843 27.2133C17.0704 28.1322 14.9547 28.5876 12.8189 28.5404Z" fill="#AE4A74"/>
<path d="M26.9081 13.2677L26.1904 9.79346H34.3152V13.2677H26.9081ZM31.2792 7.63246C30.9012 7.66522 30.5204 7.62025 30.1617 7.5005C29.803 7.38075 29.4745 7.18892 29.1977 6.9376C28.7412 6.4363 28.4998 5.78502 28.523 5.11708C28.4896 4.44553 28.7321 3.78848 29.1977 3.2896C29.4752 3.03938 29.8038 2.84826 30.1624 2.72858C30.5209 2.60889 30.9013 2.5633 31.2792 2.59475C31.655 2.56131 32.0338 2.606 32.3903 2.72584C32.7468 2.84568 33.0727 3.03789 33.3463 3.2896C33.7969 3.78516 34.0333 4.42956 34.0066 5.08928C34.0309 5.75493 33.7951 6.40499 33.3463 6.90981C33.0761 7.16762 32.7514 7.36572 32.3945 7.49047C32.0377 7.61522 31.6572 7.66366 31.2792 7.63246ZM29.5279 27.9084V9.80041H34.3152V27.9084H29.5279Z" fill="#AE4A74"/>
<path d="M43.5813 27.9082L37.7245 9.8002H42.6483L48.2682 27.9082H43.5813ZM45.0168 27.9082V24.1351H50.041V27.936L45.0168 27.9082ZM46.9117 27.9082L51.7349 9.8002H56.35L51.2612 27.9082H46.9117Z" fill="#AE4A74"/>
<path d="M53.9169 13.2675L55.3524 9.8002H65.6305V13.2675H53.9169Z" fill="#AE4A74"/>
<path d="M62.6015 7.63237C62.2224 7.66525 61.8405 7.62036 61.4806 7.50062C61.1207 7.38089 60.7909 7.18901 60.5129 6.93751C60.0589 6.43516 59.8202 5.78399 59.8453 5.11699C59.8099 4.44641 60.0499 3.78948 60.5129 3.28952C60.7917 3.03911 61.1216 2.84793 61.4813 2.72827C61.841 2.6086 62.2225 2.56309 62.6015 2.59466C62.9772 2.56257 63.3556 2.6079 63.7119 2.72767C64.0682 2.84744 64.3943 3.03892 64.6686 3.28952C65.1132 3.79039 65.3442 4.43635 65.3146 5.09614C65.338 5.76047 65.1052 6.40946 64.6614 6.91667C64.3906 7.17118 64.0666 7.36671 63.7114 7.49014C63.3561 7.61358 62.9777 7.66207 62.6015 7.63237Z" fill="#AE4A74"/>
<path d="M65.6304 9.8002H60.8431V27.9082H65.6304V9.8002Z" fill="#AE4A74"/>
<path d="M77.9325 28.4781C75.3534 28.4781 73.3365 27.95 71.8819 26.8939C71.1775 26.3848 70.6061 25.723 70.2134 24.9616C69.8208 24.2002 69.6179 23.3603 69.621 22.5093H73.9275C73.9799 22.8467 74.1015 23.1705 74.2852 23.4617C74.4688 23.7529 74.7108 24.0055 74.9969 24.2048C75.886 24.7889 76.9548 25.0611 78.0258 24.9761C78.9796 25.0209 79.9279 24.8118 80.7675 24.3715C81.068 24.2119 81.3181 23.9764 81.4913 23.6901C81.6645 23.4038 81.7542 23.0773 81.7509 22.7456C81.7576 22.4629 81.69 22.1833 81.5544 21.9329C81.4188 21.6825 81.2196 21.4696 80.9757 21.3142C80.1697 20.8772 79.2651 20.6386 78.3416 20.6193L76.6908 20.4525C74.9389 20.3572 73.2577 19.7517 71.8675 18.7154C71.3127 18.2578 70.8725 17.6842 70.5803 17.0378C70.2881 16.3913 70.1515 15.6891 70.1808 14.984C70.1386 13.8657 70.4765 12.7648 71.1426 11.8502C71.8243 10.9764 72.7511 10.3107 73.8126 9.93241C75.0619 9.47623 76.3894 9.25456 77.7243 9.27924C79.6962 9.18908 81.6473 9.70203 83.3012 10.7454C84.0075 11.2321 84.5805 11.8782 84.9707 12.6277C85.3609 13.3771 85.5565 14.2074 85.5405 15.0466H81.2341C81.205 14.7281 81.1037 14.4198 80.9374 14.1436C80.7712 13.8673 80.5441 13.63 80.2723 13.4484C79.5138 12.9472 78.6053 12.7029 77.6884 12.7535C76.8662 12.7029 76.0482 12.9021 75.3486 13.3233C75.0921 13.4786 74.881 13.6949 74.7353 13.9515C74.5895 14.2081 74.5141 14.4966 74.516 14.7895C74.5047 15.0486 74.5605 15.3065 74.6783 15.5395C74.7962 15.7725 74.9723 15.9733 75.1907 16.1236C75.8459 16.498 76.5843 16.7148 77.3439 16.7559L78.9947 16.9227C80.8614 17.0275 82.6598 17.6392 84.184 18.6876C84.8063 19.1365 85.3078 19.7238 85.6464 20.3998C85.9849 21.0759 86.1505 21.8208 86.1291 22.5719C86.1568 23.6915 85.8009 24.7885 85.1171 25.6918C84.3706 26.6153 83.378 27.324 82.2461 27.7416C80.8728 28.2614 79.4066 28.5118 77.9325 28.4781Z" fill="#AE4A74"/>
</g>
<path d="M110.772 11.6945V10.418H112.248C112.545 10.418 112.795 10.3592 112.996 10.2416C113.203 10.1239 113.359 9.96134 113.463 9.75378C113.574 9.54621 113.629 9.30751 113.629 9.03767C113.629 8.76783 113.574 8.52913 113.463 8.32156C113.359 8.11399 113.203 7.95486 112.996 7.84415C112.795 7.72653 112.545 7.66772 112.248 7.66772H110.772V6.39118H112.123C112.76 6.39118 113.3 6.49497 113.744 6.70253C114.194 6.9101 114.537 7.20761 114.772 7.59507C115.007 7.97561 115.125 8.4288 115.125 8.95464V9.12069C115.125 9.64653 115.007 10.1032 114.772 10.4906C114.537 10.8712 114.194 11.1687 113.744 11.3832C113.3 11.5907 112.76 11.6945 112.123 11.6945H110.772ZM109.505 14.0193V6.39118H110.98V14.0193H109.505Z" fill="#AE4A74"/>
<path d="M116.518 14.0193V6.44307H117.962V14.0193H116.518ZM115.811 7.52242V6.44307H117.962V7.52242H115.811Z" fill="#AE4A74"/>
<path d="M123.244 14.0193V12.3484H123.005V10.4906C123.005 10.1655 122.926 9.92329 122.767 9.76415C122.607 9.60502 122.361 9.52545 122.029 9.52545C121.856 9.52545 121.648 9.52891 121.406 9.53583C121.163 9.54275 120.917 9.55313 120.668 9.56696C120.426 9.57388 120.207 9.58426 120.014 9.5981V8.37345C120.173 8.35961 120.353 8.34578 120.554 8.33194C120.755 8.3181 120.959 8.31118 121.167 8.31118C121.381 8.30426 121.582 8.3008 121.769 8.3008C122.351 8.3008 122.832 8.37691 123.213 8.52913C123.601 8.68134 123.892 8.92005 124.086 9.24524C124.287 9.57042 124.387 9.99594 124.387 10.5218V14.0193H123.244ZM121.426 14.1646C121.018 14.1646 120.658 14.0919 120.346 13.9466C120.041 13.8013 119.802 13.5938 119.629 13.3239C119.463 13.0541 119.38 12.7289 119.38 12.3484C119.38 11.9332 119.48 11.5942 119.681 11.3313C119.889 11.0684 120.176 10.8712 120.543 10.7397C120.917 10.6083 121.354 10.5425 121.852 10.5425H123.161V11.4039H121.832C121.499 11.4039 121.243 11.487 121.063 11.653C120.89 11.8122 120.803 12.0197 120.803 12.2757C120.803 12.5317 120.89 12.7393 121.063 12.8984C121.243 13.0576 121.499 13.1371 121.832 13.1371C122.032 13.1371 122.216 13.1025 122.382 13.0333C122.555 12.9572 122.697 12.8327 122.808 12.6597C122.926 12.4798 122.992 12.2377 123.005 11.9332L123.359 12.338C123.324 12.7324 123.227 13.0645 123.068 13.3343C122.915 13.6042 122.701 13.8117 122.424 13.957C122.154 14.0954 121.821 14.1646 121.426 14.1646Z" fill="#AE4A74"/>
<path d="M128.602 14.0919C128.083 14.0919 127.653 14.0262 127.314 13.8947C126.981 13.7564 126.732 13.528 126.566 13.2098C126.4 12.8846 126.316 12.4487 126.316 11.9021L126.327 6.79594H127.677L127.667 11.9955C127.667 12.2723 127.74 12.4867 127.885 12.639C128.038 12.7843 128.252 12.8569 128.529 12.8569H129.412V14.0919H128.602ZM125.423 9.44243V8.38383H129.412V9.44243H125.423Z" fill="#AE4A74"/>
<path d="M134.238 14.0193V12.3484H133.999V10.4906C133.999 10.1655 133.92 9.92329 133.76 9.76415C133.601 9.60502 133.355 9.52545 133.023 9.52545C132.85 9.52545 132.642 9.52891 132.399 9.53583C132.157 9.54275 131.911 9.55313 131.662 9.56696C131.419 9.57388 131.201 9.58426 131.007 9.5981V8.37345C131.167 8.35961 131.347 8.34578 131.548 8.33194C131.748 8.3181 131.953 8.31118 132.16 8.31118C132.375 8.30426 132.576 8.3008 132.763 8.3008C133.345 8.3008 133.826 8.37691 134.207 8.52913C134.595 8.68134 134.886 8.92005 135.08 9.24524C135.28 9.57042 135.381 9.99594 135.381 10.5218V14.0193H134.238ZM132.42 14.1646C132.012 14.1646 131.651 14.0919 131.34 13.9466C131.035 13.8013 130.796 13.5938 130.623 13.3239C130.457 13.0541 130.374 12.7289 130.374 12.3484C130.374 11.9332 130.474 11.5942 130.675 11.3313C130.883 11.0684 131.17 10.8712 131.537 10.7397C131.911 10.6083 132.347 10.5425 132.846 10.5425H134.155V11.4039H132.825C132.493 11.4039 132.237 11.487 132.057 11.653C131.883 11.8122 131.797 12.0197 131.797 12.2757C131.797 12.5317 131.883 12.7393 132.057 12.8984C132.237 13.0576 132.493 13.1371 132.825 13.1371C133.026 13.1371 133.21 13.1025 133.376 13.0333C133.549 12.9572 133.691 12.8327 133.802 12.6597C133.92 12.4798 133.985 12.2377 133.999 11.9332L134.352 12.338C134.318 12.7324 134.221 13.0645 134.062 13.3343C133.909 13.6042 133.694 13.8117 133.417 13.957C133.147 14.0954 132.815 14.1646 132.42 14.1646Z" fill="#AE4A74"/>
<path d="M137.279 14.0193V8.24891C137.279 7.60545 137.456 7.13151 137.809 6.82707C138.169 6.51572 138.699 6.36005 139.398 6.36005H140.105V7.47053H139.294C139.08 7.47053 138.914 7.52934 138.796 7.64697C138.685 7.75767 138.63 7.9168 138.63 8.12437V14.0193H137.279ZM136.573 9.53583V8.47724H140.198V9.53583H136.573Z" fill="#AE4A74"/>
<path d="M143.998 14.2165C143.499 14.2165 143.06 14.1369 142.679 13.9778C142.298 13.8186 141.976 13.6042 141.712 13.3343C141.449 13.0576 141.248 12.7462 141.11 12.4003C140.978 12.0543 140.913 11.6945 140.913 11.3209V11.103C140.913 10.7155 140.982 10.3488 141.12 10.0029C141.266 9.64999 141.47 9.33864 141.733 9.0688C142.003 8.79205 142.329 8.57756 142.71 8.42534C143.091 8.26621 143.52 8.18664 143.998 8.18664C144.476 8.18664 144.905 8.26621 145.286 8.42534C145.667 8.57756 145.989 8.79205 146.252 9.0688C146.522 9.33864 146.727 9.64999 146.865 10.0029C147.004 10.3488 147.073 10.7155 147.073 11.103V11.3209C147.073 11.6945 147.004 12.0543 146.865 12.4003C146.734 12.7462 146.536 13.0576 146.273 13.3343C146.01 13.6042 145.688 13.8186 145.307 13.9778C144.926 14.1369 144.49 14.2165 143.998 14.2165ZM143.998 12.9815C144.351 12.9815 144.649 12.9053 144.891 12.7531C145.134 12.594 145.317 12.383 145.442 12.12C145.567 11.8502 145.629 11.5458 145.629 11.2067C145.629 10.8608 145.563 10.5564 145.432 10.2935C145.307 10.0236 145.12 9.81259 144.871 9.66037C144.628 9.50124 144.337 9.42167 143.998 9.42167C143.659 9.42167 143.364 9.50124 143.115 9.66037C142.873 9.81259 142.686 10.0236 142.554 10.2935C142.422 10.5564 142.357 10.8608 142.357 11.2067C142.357 11.5458 142.419 11.8502 142.544 12.12C142.675 12.383 142.862 12.594 143.105 12.7531C143.347 12.9053 143.645 12.9815 143.998 12.9815Z" fill="#AE4A74"/>
<path d="M148.554 14.0193V8.38383H149.696V10.7709H149.665C149.665 9.96134 149.838 9.34902 150.185 8.93388C150.531 8.51875 151.04 8.31118 151.712 8.31118H151.92V9.56696H151.525C151.04 9.56696 150.663 9.69842 150.392 9.96134C150.129 10.2173 149.998 10.591 149.998 11.0822V14.0193H148.554Z" fill="#AE4A74"/>
<path d="M153.102 14.0193V8.38383H154.245V10.802H154.141C154.141 10.2346 154.214 9.76069 154.359 9.38015C154.505 8.99269 154.719 8.7021 155.003 8.50837C155.294 8.30772 155.654 8.2074 156.084 8.2074H156.146C156.582 8.2074 156.942 8.30772 157.226 8.50837C157.517 8.7021 157.732 8.99269 157.87 9.38015C158.016 9.76069 158.089 10.2346 158.089 10.802H157.725C157.725 10.2346 157.798 9.76069 157.943 9.38015C158.095 8.99269 158.314 8.7021 158.598 8.50837C158.888 8.30772 159.249 8.2074 159.678 8.2074H159.74C160.177 8.2074 160.54 8.30772 160.831 8.50837C161.122 8.7021 161.34 8.99269 161.486 9.38015C161.638 9.76069 161.714 10.2346 161.714 10.802V14.0193H160.27V10.6671C160.27 10.3142 160.18 10.034 160 9.82642C159.82 9.61194 159.564 9.50469 159.231 9.50469C158.899 9.50469 158.632 9.6154 158.431 9.8368C158.23 10.0513 158.13 10.3419 158.13 10.7086V14.0193H156.686V10.6671C156.686 10.3142 156.596 10.034 156.416 9.82642C156.236 9.61194 155.98 9.50469 155.647 9.50469C155.315 9.50469 155.048 9.6154 154.847 9.8368C154.646 10.0513 154.546 10.3419 154.546 10.7086V14.0193H153.102Z" fill="#AE4A74"/>
<path d="M166.891 14.0193V12.3484H166.652V10.4906C166.652 10.1655 166.573 9.92329 166.414 9.76415C166.254 9.60502 166.008 9.52545 165.676 9.52545C165.503 9.52545 165.295 9.52891 165.053 9.53583C164.81 9.54275 164.564 9.55313 164.315 9.56696C164.073 9.57388 163.855 9.58426 163.661 9.5981V8.37345C163.82 8.35961 164 8.34578 164.201 8.33194C164.402 8.3181 164.606 8.31118 164.814 8.31118C165.028 8.30426 165.229 8.3008 165.416 8.3008C165.998 8.3008 166.479 8.37691 166.86 8.52913C167.248 8.68134 167.539 8.92005 167.733 9.24524C167.934 9.57042 168.034 9.99594 168.034 10.5218V14.0193H166.891ZM165.073 14.1646C164.665 14.1646 164.305 14.0919 163.993 13.9466C163.688 13.8013 163.449 13.5938 163.276 13.3239C163.11 13.0541 163.027 12.7289 163.027 12.3484C163.027 11.9332 163.127 11.5942 163.328 11.3313C163.536 11.0684 163.823 10.8712 164.19 10.7397C164.564 10.6083 165.001 10.5425 165.499 10.5425H166.808V11.4039H165.479C165.146 11.4039 164.89 11.487 164.71 11.653C164.537 11.8122 164.45 12.0197 164.45 12.2757C164.45 12.5317 164.537 12.7393 164.71 12.8984C164.89 13.0576 165.146 13.1371 165.479 13.1371C165.679 13.1371 165.863 13.1025 166.029 13.0333C166.202 12.9572 166.344 12.8327 166.455 12.6597C166.573 12.4798 166.639 12.2377 166.652 11.9332L167.006 12.338C166.971 12.7324 166.874 13.0645 166.715 13.3343C166.562 13.6042 166.348 13.8117 166.071 13.957C165.801 14.0954 165.468 14.1646 165.073 14.1646Z" fill="#AE4A74"/>
<path d="M174.593 14.2061C174.198 14.2061 173.835 14.1335 173.502 13.9882C173.17 13.8429 172.883 13.6387 172.64 13.3758C172.398 13.1129 172.211 12.8085 172.079 12.4625C171.948 12.1097 171.882 11.7291 171.882 11.3209V11.103C171.882 10.7017 171.944 10.3246 172.069 9.97172C172.2 9.61886 172.38 9.31097 172.609 9.04805C172.844 8.78513 173.125 8.58102 173.45 8.43572C173.783 8.28351 174.15 8.2074 174.552 8.2074C174.995 8.2074 175.383 8.30426 175.715 8.49799C176.054 8.6848 176.325 8.96848 176.525 9.34902C176.726 9.72956 176.837 10.207 176.858 10.7812L176.432 10.2831V6.44307H177.876V14.0193H176.733V11.6219H176.983C176.962 12.1962 176.844 12.677 176.629 13.0645C176.415 13.445 176.131 13.7322 175.777 13.9259C175.431 14.1127 175.036 14.2061 174.593 14.2061ZM174.915 12.9918C175.199 12.9918 175.459 12.9296 175.694 12.805C175.93 12.6736 176.117 12.4867 176.255 12.2446C176.401 11.9955 176.473 11.7049 176.473 11.3728V10.9577C176.473 10.6256 176.401 10.3488 176.255 10.1274C176.11 9.89907 175.919 9.7261 175.684 9.60848C175.448 9.48394 175.192 9.42167 174.915 9.42167C174.604 9.42167 174.327 9.49778 174.084 9.64999C173.849 9.79529 173.662 10.0029 173.523 10.2727C173.392 10.5425 173.326 10.8573 173.326 11.2171C173.326 11.5769 173.395 11.8917 173.534 12.1616C173.672 12.4245 173.859 12.6286 174.095 12.7739C174.337 12.9192 174.61 12.9918 174.915 12.9918Z" fill="#AE4A74"/>
<path d="M182.26 14.2165C181.776 14.2165 181.35 14.1335 180.983 13.9674C180.622 13.8013 180.321 13.5799 180.079 13.3032C179.843 13.0195 179.663 12.7047 179.539 12.3587C179.421 12.0128 179.362 11.6599 179.362 11.3002V11.103C179.362 10.7293 179.421 10.3696 179.539 10.0236C179.663 9.67075 179.843 9.3594 180.079 9.08956C180.321 8.8128 180.619 8.59486 180.972 8.43572C181.325 8.26967 181.734 8.18664 182.198 8.18664C182.808 8.18664 183.317 8.32156 183.725 8.5914C184.141 8.85432 184.452 9.20372 184.66 9.63961C184.868 10.0686 184.972 10.5322 184.972 11.0303V11.5492H179.975V10.6671H184.068L183.621 11.103C183.621 10.7432 183.569 10.4353 183.465 10.1793C183.362 9.92329 183.202 9.7261 182.988 9.58772C182.78 9.44934 182.517 9.38015 182.198 9.38015C181.879 9.38015 181.609 9.4528 181.388 9.5981C181.166 9.7434 180.996 9.95442 180.879 10.2312C180.768 10.501 180.712 10.8262 180.712 11.2067C180.712 11.5596 180.768 11.8744 180.879 12.1512C180.99 12.421 181.159 12.6355 181.388 12.7946C181.616 12.9469 181.907 13.023 182.26 13.023C182.614 13.023 182.901 12.9538 183.123 12.8154C183.344 12.6701 183.486 12.4937 183.549 12.2861H184.878C184.795 12.6736 184.636 13.0126 184.4 13.3032C184.165 13.5938 183.864 13.8186 183.497 13.9778C183.136 14.1369 182.724 14.2165 182.26 14.2165Z" fill="#AE4A74"/>
<path d="M112.923 27.4979C112.237 27.4979 111.649 27.3768 111.157 27.1347C110.665 26.8925 110.263 26.5777 109.952 26.1902C109.647 25.8028 109.422 25.3807 109.277 24.9241C109.131 24.4674 109.058 24.0281 109.058 23.606V23.3777C109.058 22.9072 109.131 22.4436 109.277 21.987C109.429 21.5303 109.661 21.1152 109.973 20.7416C110.284 20.368 110.679 20.0704 111.157 19.849C111.642 19.6207 112.213 19.5065 112.871 19.5065C113.557 19.5065 114.152 19.6311 114.658 19.8802C115.17 20.1223 115.579 20.4683 115.884 20.918C116.188 21.3608 116.372 21.8797 116.434 22.4748H114.949C114.893 22.1288 114.769 21.8382 114.575 21.603C114.388 21.3608 114.149 21.1809 113.858 21.0633C113.567 20.9388 113.238 20.8765 112.871 20.8765C112.497 20.8765 112.164 20.9422 111.874 21.0737C111.583 21.1982 111.34 21.3781 111.146 21.6134C110.953 21.8486 110.804 22.1254 110.7 22.4436C110.603 22.7619 110.554 23.1148 110.554 23.5022C110.554 23.8758 110.603 24.2218 110.7 24.5401C110.804 24.8583 110.956 25.1385 111.157 25.3807C111.358 25.616 111.604 25.7993 111.894 25.9308C112.192 26.0622 112.535 26.128 112.923 26.128C113.491 26.128 113.969 25.9896 114.356 25.7128C114.751 25.4291 114.99 25.0348 115.073 24.5297H116.559C116.49 25.0694 116.306 25.5641 116.008 26.0138C115.71 26.4635 115.302 26.8233 114.782 27.0931C114.263 27.363 113.643 27.4979 112.923 27.4979Z" fill="#AE4A74"/>
<path d="M118.176 27.3007V21.6653H119.62V27.3007H118.176ZM117.386 22.7446V21.6653H119.62V22.7446H117.386ZM118.706 20.9907C118.422 20.9907 118.211 20.918 118.072 20.7727C117.94 20.6205 117.875 20.4302 117.875 20.2019C117.875 19.9736 117.94 19.7868 118.072 19.6415C118.211 19.4962 118.422 19.4235 118.706 19.4235C118.99 19.4235 119.197 19.4962 119.329 19.6415C119.461 19.7868 119.526 19.9736 119.526 20.2019C119.526 20.4302 119.461 20.6205 119.329 20.7727C119.197 20.918 118.99 20.9907 118.706 20.9907Z" fill="#AE4A74"/>
<path d="M124.025 27.4979C123.54 27.4979 123.114 27.4149 122.747 27.2488C122.387 27.0828 122.086 26.8614 121.843 26.5846C121.608 26.3009 121.428 25.9861 121.303 25.6402C121.185 25.2942 121.127 24.9414 121.127 24.5816V24.3844C121.127 24.0108 121.185 23.651 121.303 23.305C121.428 22.9522 121.608 22.6408 121.843 22.371C122.086 22.0942 122.384 21.8763 122.737 21.7171C123.09 21.5511 123.499 21.4681 123.963 21.4681C124.572 21.4681 125.081 21.603 125.49 21.8728C125.905 22.1357 126.217 22.4851 126.425 22.921C126.632 23.35 126.736 23.8136 126.736 24.3117V24.8307H121.739V23.9485H125.832L125.386 24.3844C125.386 24.0246 125.334 23.7167 125.23 23.4607C125.126 23.2047 124.967 23.0075 124.752 22.8691C124.544 22.7308 124.281 22.6616 123.963 22.6616C123.644 22.6616 123.374 22.7342 123.152 22.8795C122.931 23.0248 122.761 23.2358 122.643 23.5126C122.532 23.7824 122.477 24.1076 122.477 24.4882C122.477 24.841 122.532 25.1558 122.643 25.4326C122.754 25.7024 122.924 25.9169 123.152 26.0761C123.381 26.2283 123.672 26.3044 124.025 26.3044C124.378 26.3044 124.666 26.2352 124.887 26.0968C125.109 25.9515 125.251 25.7751 125.313 25.5675H126.643C126.56 25.955 126.4 26.294 126.165 26.5846C125.929 26.8752 125.628 27.1001 125.261 27.2592C124.901 27.4183 124.489 27.4979 124.025 27.4979ZM122.01 20.9491L123.111 18.8216H124.835L125.926 20.9491H124.721L124.014 19.5065H123.9L123.194 20.9491H122.01Z" fill="#AE4A74"/>
<path d="M128.159 27.3007V21.6653H129.302V24.0834H129.198C129.198 23.5091 129.274 23.0317 129.426 22.6512C129.579 22.2637 129.804 21.9731 130.102 21.7794C130.406 21.5857 130.784 21.4888 131.234 21.4888H131.296C131.968 21.4888 132.477 21.7068 132.823 22.1427C133.17 22.5716 133.343 23.2151 133.343 24.073V27.3007H131.899V23.9485C131.899 23.6025 131.798 23.3223 131.598 23.1078C131.404 22.8934 131.134 22.7861 130.787 22.7861C130.434 22.7861 130.147 22.8968 129.925 23.1182C129.71 23.3327 129.603 23.6233 129.603 23.99V27.3007H128.159Z" fill="#AE4A74"/>
<path d="M137.615 27.4979C137.124 27.4979 136.698 27.4149 136.337 27.2488C135.984 27.0828 135.686 26.8614 135.444 26.5846C135.209 26.3078 135.032 25.9965 134.914 25.6505C134.797 25.3046 134.738 24.9517 134.738 24.592V24.3948C134.738 24.0142 134.797 23.651 134.914 23.305C135.039 22.9522 135.222 22.6408 135.465 22.371C135.707 22.0942 136.005 21.8763 136.358 21.7171C136.718 21.5511 137.134 21.4681 137.605 21.4681C138.097 21.4681 138.536 21.5649 138.924 21.7587C139.312 21.9455 139.62 22.2084 139.849 22.5474C140.084 22.8864 140.216 23.2808 140.244 23.7305H138.841C138.806 23.44 138.682 23.1978 138.467 23.0041C138.259 22.8103 137.972 22.7135 137.605 22.7135C137.286 22.7135 137.02 22.7896 136.805 22.9418C136.597 23.094 136.441 23.305 136.337 23.5749C136.234 23.8378 136.182 24.1422 136.182 24.4882C136.182 24.8203 136.23 25.1213 136.327 25.3911C136.431 25.6609 136.587 25.872 136.795 26.0242C137.009 26.1764 137.283 26.2525 137.615 26.2525C137.865 26.2525 138.079 26.2075 138.259 26.1176C138.439 26.0276 138.581 25.9031 138.685 25.744C138.796 25.5848 138.865 25.4049 138.893 25.2043H140.295C140.268 25.6609 140.133 26.0622 139.89 26.4082C139.655 26.7472 139.34 27.0136 138.945 27.2073C138.557 27.401 138.114 27.4979 137.615 27.4979Z" fill="#AE4A74"/>
<path d="M141.939 27.3007V21.6653H143.383V27.3007H141.939ZM141.149 22.7446V21.6653H143.383V22.7446H141.149ZM142.469 20.9907C142.185 20.9907 141.973 20.918 141.835 20.7727C141.703 20.6205 141.638 20.4302 141.638 20.2019C141.638 19.9736 141.703 19.7868 141.835 19.6415C141.973 19.4962 142.185 19.4235 142.469 19.4235C142.753 19.4235 142.96 19.4962 143.092 19.6415C143.223 19.7868 143.289 19.9736 143.289 20.2019C143.289 20.4302 143.223 20.6205 143.092 20.7727C142.96 20.918 142.753 20.9907 142.469 20.9907Z" fill="#AE4A74"/>
<path d="M148.681 27.3007V25.6298H148.442V23.7721C148.442 23.4469 148.363 23.2047 148.203 23.0456C148.044 22.8864 147.798 22.8069 147.466 22.8069C147.293 22.8069 147.085 22.8103 146.842 22.8173C146.6 22.8242 146.354 22.8345 146.105 22.8484C145.862 22.8553 145.644 22.8657 145.45 22.8795V21.6549C145.61 21.641 145.79 21.6272 145.991 21.6134C146.191 21.5995 146.396 21.5926 146.603 21.5926C146.818 21.5857 147.019 21.5822 147.206 21.5822C147.788 21.5822 148.269 21.6583 148.65 21.8105C149.038 21.9628 149.329 22.2015 149.523 22.5267C149.723 22.8518 149.824 23.2774 149.824 23.8032V27.3007H148.681ZM146.863 27.446C146.455 27.446 146.094 27.3734 145.783 27.2281C145.478 27.0828 145.239 26.8752 145.066 26.6054C144.9 26.3355 144.817 26.0103 144.817 25.6298C144.817 25.2147 144.917 24.8756 145.118 24.6127C145.326 24.3498 145.613 24.1526 145.98 24.0211C146.354 23.8897 146.79 23.824 147.289 23.824H148.598V24.6854H147.268C146.936 24.6854 146.68 24.7684 146.5 24.9344C146.326 25.0936 146.24 25.3011 146.24 25.5571C146.24 25.8131 146.326 26.0207 146.5 26.1798C146.68 26.339 146.936 26.4185 147.268 26.4185C147.469 26.4185 147.653 26.384 147.819 26.3148C147.992 26.2387 148.134 26.1141 148.245 25.9411C148.363 25.7612 148.428 25.5191 148.442 25.2147L148.795 25.6194C148.761 26.0138 148.664 26.3459 148.505 26.6157C148.352 26.8856 148.138 27.0931 147.86 27.2384C147.59 27.3768 147.258 27.446 146.863 27.446Z" fill="#AE4A74"/>
<path d="M157.578 27.4979C156.892 27.4979 156.303 27.3768 155.812 27.1347C155.32 26.8925 154.918 26.5777 154.607 26.1902C154.302 25.8028 154.077 25.3807 153.931 24.9241C153.786 24.4674 153.713 24.0281 153.713 23.606V23.3777C153.713 22.9072 153.786 22.4436 153.931 21.987C154.084 21.5303 154.316 21.1152 154.627 20.7416C154.939 20.368 155.334 20.0704 155.812 19.849C156.296 19.6207 156.868 19.5065 157.526 19.5065C158.211 19.5065 158.807 19.6311 159.312 19.8802C159.825 20.1223 160.234 20.4683 160.538 20.918C160.843 21.3608 161.027 21.8797 161.089 22.4748H159.603C159.548 22.1288 159.423 21.8382 159.229 21.603C159.042 21.3608 158.803 21.1809 158.513 21.0633C158.222 20.9388 157.893 20.8765 157.526 20.8765C157.152 20.8765 156.819 20.9422 156.528 21.0737C156.238 21.1982 155.995 21.3781 155.801 21.6134C155.607 21.8486 155.458 22.1254 155.354 22.4436C155.258 22.7619 155.209 23.1148 155.209 23.5022C155.209 23.8758 155.258 24.2218 155.354 24.5401C155.458 24.8583 155.611 25.1385 155.812 25.3807C156.012 25.616 156.258 25.7993 156.549 25.9308C156.847 26.0622 157.19 26.128 157.578 26.128C158.146 26.128 158.623 25.9896 159.011 25.7128C159.406 25.4291 159.645 25.0348 159.728 24.5297H161.214C161.144 25.0694 160.961 25.5641 160.663 26.0138C160.365 26.4635 159.957 26.8233 159.437 27.0931C158.918 27.363 158.298 27.4979 157.578 27.4979Z" fill="#AE4A74"/>
<path d="M162.831 27.3007V21.6653H164.275V27.3007H162.831ZM162.041 22.7446V21.6653H164.275V22.7446H162.041ZM163.36 20.9907C163.077 20.9907 162.865 20.918 162.727 20.7727C162.595 20.6205 162.529 20.4302 162.529 20.2019C162.529 19.9736 162.595 19.7868 162.727 19.6415C162.865 19.4962 163.077 19.4235 163.36 19.4235C163.644 19.4235 163.852 19.4962 163.984 19.6415C164.115 19.7868 164.181 19.9736 164.181 20.2019C164.181 20.4302 164.115 20.6205 163.984 20.7727C163.852 20.918 163.644 20.9907 163.36 20.9907Z" fill="#AE4A74"/>
<path d="M168.493 27.4875C168.098 27.4875 167.734 27.4149 167.402 27.2696C167.069 27.1243 166.782 26.9202 166.54 26.6572C166.297 26.3943 166.11 26.0899 165.979 25.744C165.847 25.3911 165.781 25.0105 165.781 24.6023V24.3844C165.781 23.9831 165.844 23.606 165.968 23.2531C166.1 22.9003 166.28 22.5924 166.508 22.3295C166.744 22.0665 167.024 21.8624 167.35 21.7171C167.682 21.5649 168.049 21.4888 168.451 21.4888C168.894 21.4888 169.282 21.5857 169.615 21.7794C169.954 21.9662 170.224 22.2499 170.425 22.6304C170.626 23.011 170.737 23.4884 170.757 24.0627L170.331 23.5645V19.7245H171.775V27.3007H170.633V24.9033H170.882C170.861 25.4776 170.743 25.9584 170.529 26.3459C170.314 26.7264 170.03 27.0136 169.677 27.2073C169.331 27.3941 168.936 27.4875 168.493 27.4875ZM168.815 26.2733C169.099 26.2733 169.358 26.211 169.594 26.0864C169.829 25.955 170.016 25.7682 170.155 25.526C170.3 25.2769 170.373 24.9863 170.373 24.6542V24.2391C170.373 23.907 170.3 23.6302 170.155 23.4088C170.009 23.1805 169.819 23.0075 169.583 22.8899C169.348 22.7654 169.092 22.7031 168.815 22.7031C168.503 22.7031 168.226 22.7792 167.984 22.9314C167.748 23.0767 167.561 23.2843 167.423 23.5541C167.291 23.824 167.225 24.1388 167.225 24.4985C167.225 24.8583 167.295 25.1731 167.433 25.443C167.572 25.7059 167.759 25.91 167.994 26.0553C168.236 26.2006 168.51 26.2733 168.815 26.2733Z" fill="#AE4A74"/>
<path d="M177.053 27.3007V25.6298H176.814V23.7721C176.814 23.4469 176.735 23.2047 176.575 23.0456C176.416 22.8864 176.17 22.8069 175.838 22.8069C175.665 22.8069 175.457 22.8103 175.215 22.8173C174.972 22.8242 174.726 22.8345 174.477 22.8484C174.235 22.8553 174.016 22.8657 173.822 22.8795V21.6549C173.982 21.641 174.162 21.6272 174.363 21.6134C174.564 21.5995 174.768 21.5926 174.976 21.5926C175.19 21.5857 175.391 21.5822 175.578 21.5822C176.16 21.5822 176.641 21.6583 177.022 21.8105C177.41 21.9628 177.701 22.2015 177.895 22.5267C178.096 22.8518 178.196 23.2774 178.196 23.8032V27.3007H177.053ZM175.235 27.446C174.827 27.446 174.467 27.3734 174.155 27.2281C173.85 27.0828 173.611 26.8752 173.438 26.6054C173.272 26.3355 173.189 26.0103 173.189 25.6298C173.189 25.2147 173.289 24.8756 173.49 24.6127C173.698 24.3498 173.985 24.1526 174.352 24.0211C174.726 23.8897 175.163 23.824 175.661 23.824H176.97V24.6854H175.64C175.308 24.6854 175.052 24.7684 174.872 24.9344C174.699 25.0936 174.612 25.3011 174.612 25.5571C174.612 25.8131 174.699 26.0207 174.872 26.1798C175.052 26.339 175.308 26.4185 175.64 26.4185C175.841 26.4185 176.025 26.384 176.191 26.3148C176.364 26.2387 176.506 26.1141 176.617 25.9411C176.735 25.7612 176.8 25.5191 176.814 25.2147L177.168 25.6194C177.133 26.0138 177.036 26.3459 176.877 26.6157C176.724 26.8856 176.51 27.0931 176.233 27.2384C175.962 27.3768 175.63 27.446 175.235 27.446Z" fill="#AE4A74"/>
<path d="M182.297 27.4875C181.902 27.4875 181.538 27.4149 181.206 27.2696C180.873 27.1243 180.586 26.9202 180.344 26.6572C180.101 26.3943 179.914 26.0899 179.783 25.744C179.651 25.3911 179.585 25.0105 179.585 24.6023V24.3844C179.585 23.9831 179.648 23.606 179.772 23.2531C179.904 22.9003 180.084 22.5924 180.312 22.3295C180.548 22.0665 180.828 21.8624 181.154 21.7171C181.486 21.5649 181.853 21.4888 182.255 21.4888C182.698 21.4888 183.086 21.5857 183.419 21.7794C183.758 21.9662 184.028 22.2499 184.229 22.6304C184.43 23.011 184.54 23.4884 184.561 24.0627L184.135 23.5645V19.7245H185.579V27.3007H184.437V24.9033H184.686C184.665 25.4776 184.547 25.9584 184.333 26.3459C184.118 26.7264 183.834 27.0136 183.481 27.2073C183.135 27.3941 182.74 27.4875 182.297 27.4875ZM182.619 26.2733C182.903 26.2733 183.162 26.211 183.398 26.0864C183.633 25.955 183.82 25.7682 183.959 25.526C184.104 25.2769 184.177 24.9863 184.177 24.6542V24.2391C184.177 23.907 184.104 23.6302 183.959 23.4088C183.813 23.1805 183.623 23.0075 183.387 22.8899C183.152 22.7654 182.896 22.7031 182.619 22.7031C182.307 22.7031 182.03 22.7792 181.788 22.9314C181.552 23.0767 181.365 23.2843 181.227 23.5541C181.095 23.824 181.029 24.1388 181.029 24.4985C181.029 24.8583 181.098 25.1731 181.237 25.443C181.375 25.7059 181.562 25.91 181.798 26.0553C182.04 26.2006 182.314 26.2733 182.619 26.2733Z" fill="#AE4A74"/>
<path d="M190.857 27.3007V25.6298H190.618V23.7721C190.618 23.4469 190.539 23.2047 190.379 23.0456C190.22 22.8864 189.974 22.8069 189.642 22.8069C189.469 22.8069 189.261 22.8103 189.018 22.8173C188.776 22.8242 188.53 22.8345 188.281 22.8484C188.038 22.8553 187.82 22.8657 187.626 22.8795V21.6549C187.786 21.641 187.966 21.6272 188.167 21.6134C188.367 21.5995 188.572 21.5926 188.78 21.5926C188.994 21.5857 189.195 21.5822 189.382 21.5822C189.964 21.5822 190.445 21.6583 190.826 21.8105C191.214 21.9628 191.505 22.2015 191.699 22.5267C191.9 22.8518 192 23.2774 192 23.8032V27.3007H190.857ZM189.039 27.446C188.631 27.446 188.27 27.3734 187.959 27.2281C187.654 27.0828 187.415 26.8752 187.242 26.6054C187.076 26.3355 186.993 26.0103 186.993 25.6298C186.993 25.2147 187.093 24.8756 187.294 24.6127C187.502 24.3498 187.789 24.1526 188.156 24.0211C188.53 23.8897 188.966 23.824 189.465 23.824H190.774V24.6854H189.444C189.112 24.6854 188.856 24.7684 188.676 24.9344C188.502 25.0936 188.416 25.3011 188.416 25.5571C188.416 25.8131 188.502 26.0207 188.676 26.1798C188.856 26.339 189.112 26.4185 189.444 26.4185C189.645 26.4185 189.829 26.384 189.995 26.3148C190.168 26.2387 190.31 26.1141 190.421 25.9411C190.539 25.7612 190.604 25.5191 190.618 25.2147L190.971 25.6194C190.937 26.0138 190.84 26.3459 190.681 26.6157C190.528 26.8856 190.314 27.0931 190.037 27.2384C189.766 27.3768 189.434 27.446 189.039 27.446ZM190.379 20.7623C190.185 20.7623 190.019 20.7381 189.881 20.6897C189.749 20.6343 189.628 20.5721 189.517 20.5029C189.413 20.4337 189.302 20.3714 189.185 20.3161C189.074 20.2607 188.946 20.233 188.8 20.233C188.627 20.233 188.475 20.2711 188.343 20.3472C188.212 20.4164 188.094 20.5063 187.99 20.617L187.772 19.6415C187.89 19.5169 188.032 19.4097 188.198 19.3197C188.371 19.2229 188.575 19.1744 188.811 19.1744C189.012 19.1744 189.178 19.2021 189.309 19.2575C189.441 19.3128 189.562 19.3751 189.673 19.4443C189.784 19.5135 189.895 19.5757 190.005 19.6311C190.116 19.6795 190.248 19.7037 190.4 19.7037C190.573 19.7037 190.726 19.6691 190.857 19.6C190.996 19.5238 191.113 19.4304 191.21 19.3197L191.429 20.2953C191.318 20.4268 191.176 20.5375 191.003 20.6274C190.829 20.7174 190.622 20.7623 190.379 20.7623Z" fill="#AE4A74"/>
<rect x="97.5945" width="0.865704" height="32" fill="#AE4A74"/>
<defs>
<clipPath id="clip0_2_17167">
<rect width="94.3617" height="25.9459" fill="white" transform="translate(0 2.59457)"/>
</clipPath>
</defs>
</svg>
