<svg width="80" height="95" viewBox="0 0 80 95" fill="none" xmlns="http://www.w3.org/2000/svg">
<g clip-path="url(#clip0_1886_192)">
<path d="M52.7778 0H26.7294V8.00179H52.7778V0Z" fill="#3D99F4"/>
<path d="M72.3566 4.00092H55.2464V10.5556H24.1756V4.00092H7.06541C3.14964 4.00092 0 7.15056 0 11.0663V87.8495C0 91.7653 3.14964 94.9149 7.06541 94.9149H72.3566C76.2724 94.9149 79.422 91.7653 79.422 87.8495V11.0663C79.422 7.15056 76.2724 4.00092 72.3566 4.00092ZM9.27867 60.6093H35.4122C36.6039 60.6093 37.5403 61.5457 37.5403 62.7375C37.5403 63.9292 36.6039 64.8656 35.4122 64.8656H9.27867C8.08692 64.8656 7.15054 63.9292 7.15054 62.7375C7.15054 61.5457 8.08692 60.6093 9.27867 60.6093ZM18.6425 75.336H9.27867C8.08692 75.336 7.15054 74.3997 7.15054 73.2079C7.15054 72.0162 8.08692 71.0798 9.27867 71.0798H18.6425C19.8342 71.0798 20.7706 72.0162 20.7706 73.2079C20.7706 74.3997 19.8342 75.336 18.6425 75.336ZM59.9283 85.8065H33.7948C32.603 85.8065 31.6667 84.8701 31.6667 83.6783C31.6667 82.4866 32.603 81.5502 33.7948 81.5502H59.9283C61.1201 81.5502 62.0564 82.4866 62.0564 83.6783C62.0564 84.8701 61.1201 85.8065 59.9283 85.8065ZM66.7383 75.336H27.0699C25.8781 75.336 24.9418 74.3997 24.9418 73.2079C24.9418 72.0162 25.8781 71.0798 27.0699 71.0798H66.8235C68.0152 71.0798 68.9516 72.0162 68.9516 73.2079C68.9516 74.3997 68.0152 75.336 66.8235 75.336H66.7383Z" fill="#3D99F4"/>
</g>
<defs>
<clipPath id="clip0_1886_192">
<rect width="79.5072" height="95" fill="white"/>
</clipPath>
</defs>
</svg>
