<svg width="105" height="176" viewBox="0 0 105 176" fill="none" xmlns="http://www.w3.org/2000/svg">
<g clip-path="url(#clip0_1172_346)">
<path d="M105 140.785V166.568C78.2504 182.146 43.3913 178.397 20.5234 155.358C6.84114 141.635 0 123.621 0 105.608H44.3521C47.3499 110.826 51.0395 115.736 55.4978 120.181C69.1801 133.942 87.09 140.785 105 140.785Z" fill="#F2F6F9"/>
<path d="M105 0V44.6088C99.8115 47.624 94.9305 51.3349 90.5106 55.819C76.8283 69.5805 70.0256 87.5941 70.0256 105.608H44.3906C28.9019 78.7033 32.6299 43.6811 55.5362 20.6422C69.1801 6.88074 87.09 0 105 0Z" fill="#3D99F4"/>
</g>
<defs>
<clipPath id="clip0_1172_346">
<rect width="105" height="176" fill="white"/>
</clipPath>
</defs>
</svg>
