<svg width="98" height="100" viewBox="0 0 98 100" fill="none" xmlns="http://www.w3.org/2000/svg">
<path d="M48.9572 74.6243H90.798C92.5985 74.6243 94.1418 76.0916 94.1418 77.9904V85.8448H45.6991V77.9904C45.6991 76.1779 47.1567 74.6243 49.0429 74.6243H48.9572Z" fill="#5CDCFF"/>
<path d="M94.6562 88.8657H45.0989C43.2522 88.8657 41.7551 90.3728 41.7551 92.2319V96.6338C41.7551 98.4929 43.2522 100 45.0989 100H94.6562C96.503 100 98.0001 98.4929 98.0001 96.6338V92.2319C98.0001 90.3728 96.503 88.8657 94.6562 88.8657Z" fill="#5CDCFF"/>
<path d="M42.441 60.9006L18.9484 94.5623C17.4909 96.6338 14.49 96.8928 12.6895 95.0802L1.20041 83.4281C-0.600118 81.6155 -0.3429 78.6809 1.71484 77.1273L34.7245 53.1325C36.3535 51.9242 38.5827 52.0968 40.0403 53.5641L42.0123 55.5493C43.3841 56.9303 43.6414 59.1744 42.441 60.8143V60.9006Z" fill="#5CDCFF"/>
<path d="M87.5399 35.9564C87.3684 35.7838 87.2826 35.6112 87.1112 35.4385L58.3028 6.26504C51.3579 -0.812551 40.0403 -0.812551 33.0097 6.26504L27.8653 11.4438C20.8347 18.4351 20.8347 29.8283 27.8653 36.9058L56.6737 66.0794C56.8452 66.252 57.1024 66.4246 57.2739 66.5972L87.6256 36.0427L87.5399 35.9564Z" fill="#5CDCFF"/>
<path d="M89.2546 38.891L60.1033 68.2371C66.791 71.6896 75.1934 70.5676 80.7665 64.9573L85.9108 59.7786C91.5696 54.1683 92.6842 45.6234 89.2546 38.8047V38.891Z" fill="#5CDCFF"/>
</svg>
