<svg width="98" height="100" viewBox="0 0 98 100" fill="none" xmlns="http://www.w3.org/2000/svg">
<path d="M48.9571 74.6243H90.7979C92.5984 74.6243 94.1417 76.0916 94.1417 77.9904V85.8448H45.699V77.9904C45.699 76.1779 47.1566 74.6243 49.0429 74.6243H48.9571Z" fill="#3D99F4"/>
<path d="M94.6562 88.8657H45.0989C43.2521 88.8657 41.755 90.3728 41.755 92.2319V96.6338C41.755 98.4929 43.2521 100 45.0989 100H94.6562C96.5029 100 98 98.4929 98 96.6338V92.2319C98 90.3728 96.5029 88.8657 94.6562 88.8657Z" fill="#3D99F4"/>
<path d="M42.4409 60.9006L18.9484 94.5623C17.4908 96.6338 14.4899 96.8928 12.6894 95.0802L1.20035 83.4281C-0.600179 81.6155 -0.342961 78.6809 1.71478 77.1273L34.7244 53.1325C36.3535 51.9242 38.5827 52.0968 40.0402 53.5641L42.0122 55.5493C43.3841 56.9303 43.6413 59.1744 42.4409 60.8143V60.9006Z" fill="#3D99F4"/>
<path d="M87.5398 35.9564C87.3683 35.7838 87.2826 35.6112 87.1111 35.4385L58.3027 6.26504C51.3578 -0.812551 40.0402 -0.812551 33.0096 6.26504L27.8653 11.4438C20.8346 18.4351 20.8346 29.8283 27.8653 36.9058L56.6737 66.0794C56.8451 66.252 57.1024 66.4246 57.2738 66.5972L87.6255 36.0427L87.5398 35.9564Z" fill="#3D99F4"/>
<path d="M89.2546 38.891L60.1032 68.2371C66.7909 71.6896 75.1933 70.5676 80.7664 64.9573L85.9108 59.7786C91.5695 54.1683 92.6842 45.6234 89.2546 38.8047V38.891Z" fill="#3D99F4"/>
</svg>
