<svg width="91" height="100" viewBox="0 0 91 100" fill="none" xmlns="http://www.w3.org/2000/svg">
<g clip-path="url(#clip0_1872_242)">
<path d="M12.9335 0H3.62883C1.5818 0 0 1.48837 0 3.34884V35.4419C0 37.3023 1.5818 38.7907 3.62883 38.7907H7.25767C9.21166 38.7907 10.8865 37.3023 10.8865 35.4419V11.5349H13.1196C15.0736 11.5349 16.7485 10.0465 16.7485 8.18605V3.34884C16.7485 1.48837 15.1667 0 13.1196 0H12.9335Z" fill="#5CDCFF"/>
<path d="M51.6411 0H42.2433C40.2894 0 38.6145 1.48837 38.6145 3.34884V8.18605C38.6145 10.0465 40.1963 11.5349 42.2433 11.5349H44.4765V35.5349C44.4765 37.3954 46.0583 38.8837 48.1053 38.8837H51.7341C53.6881 38.8837 55.363 37.3954 55.363 35.5349V3.34884C55.363 1.48837 53.7812 0 51.7341 0H51.6411Z" fill="#5CDCFF"/>
<path d="M77.136 23.1628C69.5061 23.1628 63.272 29.3953 63.272 37.0232C63.272 44.6512 69.5061 50.8837 77.136 50.8837C84.7658 50.8837 91 44.6512 91 37.0232C91 29.3953 84.7658 23.1628 77.136 23.1628ZM77.136 43.2558C73.6932 43.2558 70.9018 40.4651 70.9018 37.0232C70.9018 33.5814 73.6932 30.7907 77.136 30.7907C80.5787 30.7907 83.3701 33.5814 83.3701 37.0232C83.3701 40.4651 80.5787 43.2558 77.136 43.2558Z" fill="#5CDCFF"/>
<path d="M27.7281 68.7442C14.0502 68.7442 2.88452 57.3023 2.88452 43.1628H7.53687C7.53687 55.0698 16.5624 64.7442 27.7281 64.7442C38.8937 64.7442 47.9193 55.0698 47.9193 43.1628H52.5716C52.5716 57.3023 41.406 68.7442 27.7281 68.7442Z" fill="#5CDCFF"/>
<path d="M77.136 45.8605V76.5582C77.136 88.1861 67.6452 97.6744 56.0143 97.6744H48.8497C37.2188 97.6744 27.728 88.1861 27.728 76.5582V72.8372" stroke="#5CDCFF" stroke-width="5" stroke-miterlimit="10"/>
</g>
<defs>
<clipPath id="clip0_1872_242">
<rect width="91" height="100" fill="white"/>
</clipPath>
</defs>
</svg>
