<svg width="72" height="90" viewBox="0 0 72 90" fill="none" xmlns="http://www.w3.org/2000/svg">
<g clip-path="url(#clip0_1872_321)">
<path d="M14.2742 83.5484C9.91935 83.5484 6.45161 80 6.45161 75.7258V12.6613C6.45161 12.2581 6.45161 11.7742 6.53226 11.371C2.82258 12.0161 0 15.2419 0 19.1129V82.0968C0 86.4516 3.54839 89.9194 7.82258 89.9194H59.1129V83.4677H14.2742V83.5484Z" fill="#5CDCFF"/>
<path d="M12.2581 7.82258V70.8065C12.2581 75.1613 15.8064 78.629 20.0806 78.629H71.371V0H20.0806C15.7258 0 12.2581 3.54839 12.2581 7.82258ZM44.9193 56.6936L42.5806 58.3871C41.6129 59.1129 40.2419 58.871 39.5968 57.9032L33.871 50L40.8871 47.3387L45.4839 53.629C46.2097 54.5968 45.9677 55.9677 45 56.6129L44.9193 56.6936ZM53.3871 39.7581L34.3548 46.8548C33.0645 47.3387 31.6129 46.8548 30.7258 45.8065C30.7258 45.7258 29.4355 43.871 29.4355 43.871V43.7097C28.3064 42.3387 28.0645 40.6452 28.7097 39.7581L42.3387 22.0968C43.2258 20.9677 45.1613 21.6129 46.4516 23.4677L48.2258 25.9677C50.0806 24.6774 52.5806 25.0806 53.9516 26.8548C55.2419 28.7097 54.8387 31.2097 53.0645 32.5807L54.8387 35.0806C55.9677 36.7742 55.3226 39.0323 53.4677 39.7581H53.3871Z" fill="#5CDCFF"/>
</g>
<defs>
<clipPath id="clip0_1872_321">
<rect width="71.371" height="90" fill="white"/>
</clipPath>
</defs>
</svg>
