<svg width="90" height="100" viewBox="0 0 90 100" fill="none" xmlns="http://www.w3.org/2000/svg">
<g clip-path="url(#clip0_1872_291)">
<path d="M37.2502 100C35.6232 100 34.0818 99.4012 32.883 98.2036C32.7117 98.0325 32.5404 97.7758 32.3692 97.6048C32.2835 97.5192 32.1979 97.3481 32.0266 97.2626C33.6537 95.5517 34.6813 93.3276 34.9382 90.9324C34.9382 90.4191 34.8525 89.9059 34.51 89.5637C34.1675 89.2215 33.6537 88.9649 33.1399 88.9649C32.1979 88.9649 31.4272 89.6492 31.3416 90.5902C31.0847 93.071 29.5433 95.2095 27.3168 96.4072C25.5186 96.5782 23.8059 95.8939 22.5214 94.6963C21.6651 93.8409 21.0657 92.7288 20.8088 91.5312C20.5519 90.248 19.5243 89.136 18.1541 88.7083C13.7012 87.3396 10.8754 83.2335 11.2179 78.6997C11.2179 78.272 11.3035 77.7587 11.4748 77.2455C11.4748 76.9889 11.5604 76.6467 11.5604 76.39C12.5024 76.39 13.3587 76.1334 14.215 75.8768C17.2978 74.8503 19.6955 72.5406 20.8944 69.6321C21.8363 69.8888 22.6927 69.9743 23.6346 69.9743C27.6594 69.9743 31.4272 67.8357 33.3111 64.3285C33.568 63.9007 33.568 63.3875 33.3968 62.8742C33.2255 62.361 32.883 62.0188 32.3692 61.8477C32.1123 61.7622 31.941 61.6766 31.6841 61.6766C30.999 61.6766 30.3996 62.0188 30.1427 62.6176C28.8582 64.9273 26.3749 66.467 23.6346 66.467C20.8944 66.467 22.2645 66.3815 21.6651 66.2104C21.6651 65.1839 21.6651 64.2429 21.4082 63.2164C21.2369 62.4465 20.4662 61.8477 19.6099 61.8477C18.7536 61.8477 19.0105 61.9332 18.6679 62.1043C17.9829 62.4465 17.6403 63.3019 17.8116 64.0718C18.6679 67.7502 16.5271 71.343 12.9305 72.5406C12.1598 72.7972 11.3892 72.9683 10.5328 72.9683C9.6765 72.9683 8.9058 72.8828 8.13511 72.6261C6.76499 71.9418 5.56613 71.0008 4.7098 69.8888C3.08278 68.0924 2.22645 65.7827 2.31208 63.3875C2.31208 61.42 2.91151 59.538 4.11037 57.9127C5.13796 56.4585 4.9667 54.5765 3.76784 53.2078C1.37012 50.1283 0 46.5355 0 42.8571C0 38.1522 2.31208 33.8751 6.07992 31.0522C7.36441 30.1112 7.87821 28.5714 7.45005 26.9461C7.19315 26.0051 7.02188 25.0641 7.02188 24.0376C7.02188 19.7605 9.6765 15.911 13.7869 14.3712C15.3283 13.7724 16.2702 12.3182 16.2702 10.6929C16.2702 10.3507 16.2702 10.0941 16.2702 9.7519C16.6127 7.35669 18.5823 5.30365 21.0657 4.79039C21.4938 4.70485 21.922 4.6193 22.3501 4.6193C22.7783 4.6193 23.2921 4.6193 23.7203 4.79039C23.9772 4.79039 24.2341 4.87593 24.5766 4.87593C24.5766 4.87593 24.6622 4.87593 24.7479 4.96148C27.8306 7.10006 28.7726 11.2061 26.9743 14.4568C25.176 17.7074 26.7174 15.9965 27.2312 16.5098C27.745 17.0231 28.0875 17.1086 28.6013 17.1086C29.1151 17.1086 29.8858 16.7664 30.1427 16.2532C32.6261 11.8905 31.6841 6.33017 28.0019 2.90844C29.1151 1.11203 31.0847 -0.0855713 33.2255 -0.0855713C34.8525 -0.0855713 36.3083 0.513231 37.4215 1.53975L37.5928 1.71084H37.8497C39.9049 1.96747 41.6175 3.16507 42.5595 4.96148C42.5595 5.04702 42.6451 5.21811 42.7307 5.38919L43.1589 7.01451C43.1589 7.10006 43.1589 7.27114 43.1589 7.35669C43.1589 7.61332 43.1589 7.86995 43.1589 8.12658V8.29766V46.621C42.3882 46.4499 41.6175 46.3644 40.8468 46.3644C37.4215 46.3644 34.2531 47.9042 32.1123 50.556C31.7697 50.9837 31.6841 51.497 31.7697 52.0102C31.8554 52.5235 32.1979 52.9512 32.6261 53.2078C32.883 53.3789 33.2255 53.4645 33.568 53.4645C34.1675 53.4645 34.6813 53.2078 35.0238 52.7801C36.3939 50.9837 38.6204 49.9572 40.9324 49.9572C43.2445 49.9572 42.4738 50.0427 43.2445 50.2994V94.5252C43.1589 95.2951 42.902 96.065 42.4738 96.7493C42.2169 97.2626 41.8744 97.6903 41.4462 98.2036C40.333 99.3156 38.7916 99.9144 37.1646 99.9144L37.2502 100ZM18.1541 33.6184C14.9001 36.3558 13.4443 40.8041 14.6432 44.9101C15.8421 49.0162 15.2426 46.1078 15.8421 46.2788C16.4415 46.4499 16.9553 46.3644 17.3834 46.1078C18.0685 45.68 18.3254 44.8246 18.0685 44.0547C17.1265 40.8896 18.4967 37.3823 21.4082 35.757C22.6927 36.2703 24.0628 36.5269 25.4329 36.5269C28.3444 36.5269 31.0847 35.4149 33.1399 33.4474C33.4824 33.1052 33.7393 32.5919 33.6537 32.0787C33.6537 31.5654 33.3968 31.0522 32.9686 30.7955C32.6261 30.5389 32.1979 30.3678 31.8554 30.3678C31.5128 30.3678 30.9134 30.5389 30.5709 30.8811C29.2008 32.2498 27.3168 32.9341 25.3473 32.9341C23.3777 32.9341 21.922 32.3353 20.6375 31.2232C17.726 28.828 17.1265 24.722 19.1817 21.5569C19.6955 20.787 19.5243 19.7605 18.8392 19.1616C18.4967 18.905 18.0685 18.7339 17.6403 18.7339C17.0409 18.7339 16.5271 18.9906 16.1846 19.5038C13.1018 24.0376 13.8725 30.0256 17.9829 33.6184H18.1541Z" fill="#5CDCFF"/>
<path d="M52.7497 100C51.1226 100 49.5813 99.4012 48.468 98.2891C48.0399 97.8614 47.6973 97.3482 47.4404 96.9204C47.0123 96.2361 46.841 95.4662 46.7554 94.6963V94.3541V50.4705C47.5261 50.2139 48.2968 50.1283 49.0675 50.1283C51.3795 50.1283 53.5204 51.1548 54.9761 52.9512C55.3186 53.379 55.8324 53.6356 56.4319 53.6356C57.0313 53.6356 57.1169 53.55 57.3738 53.379C57.802 53.1223 58.1445 52.6946 58.2302 52.1814C58.3158 51.6681 58.2302 51.1548 57.8876 50.7271C55.7468 48.0753 52.5784 46.5355 49.1531 46.5355C45.7278 46.5355 47.6117 46.5355 46.841 46.7921V8.21215C46.841 7.95552 46.841 7.69889 46.841 7.44226C46.841 7.27117 46.841 7.18563 46.841 7.01454L47.2692 5.38922C47.2692 5.21814 47.3548 5.13259 47.4404 4.96151C48.3824 3.1651 50.1807 1.96749 52.1502 1.79641H52.4071L52.664 1.53978C53.6916 0.598802 55.1474 0 56.6031 0C58.8296 0 60.8848 1.11206 61.9124 2.99401C58.2302 6.3302 57.2882 11.976 59.7716 16.3388C60.1141 16.852 60.7135 17.1942 61.3129 17.1942C61.9124 17.1942 62.4262 16.9376 62.8543 16.4243C63.2825 15.911 63.2825 15.1411 62.8543 14.5423C60.9704 11.2917 61.9124 7.18563 65.0808 5.04705C65.0808 5.04705 65.1664 5.04705 65.252 4.96151C65.5089 4.96151 65.8515 4.96151 66.1084 4.87596C66.5365 4.79042 66.9647 4.70488 67.4785 4.70488C67.9923 4.70488 68.3348 4.70488 68.763 4.87596C71.1607 5.38922 73.1303 7.44226 73.5584 9.83747C73.5584 10.1796 73.5584 10.5218 73.5584 10.7784C73.5584 12.4038 74.586 13.858 76.0418 14.4568C80.1521 15.9966 82.8067 19.846 82.8067 24.1232C82.8067 25.1497 82.7211 26.0907 82.3786 27.0317C81.9504 28.5714 82.3786 30.1968 83.7487 31.1377C87.6022 33.9607 89.8286 38.2378 89.8286 42.9427C89.8286 46.7066 88.4585 50.2994 85.9752 53.0368C84.7763 54.4055 84.605 56.2874 85.6326 57.7417C86.7459 59.367 87.4309 61.2489 87.4309 63.2164C87.4309 65.6116 86.5746 67.8358 85.0332 69.6322C84.0912 70.8298 82.8924 71.7707 81.6079 72.3695C80.8372 72.6262 80.0665 72.7117 79.2102 72.7117C78.3538 72.7117 77.5832 72.5406 76.8125 72.284C73.2159 71.0864 71.0751 67.408 71.9314 63.8152C72.1027 62.8742 71.6745 62.0188 70.7325 61.6766C70.5613 61.6766 70.39 61.5911 70.1331 61.5911C69.2768 61.5911 68.5917 62.1899 68.3348 62.9598C68.0779 63.9008 67.9923 64.9273 68.0779 65.9538C67.3929 66.1249 66.7934 66.2104 66.1084 66.2104C63.3681 66.2104 60.8848 64.7562 59.6003 62.361C59.2577 61.7622 58.6583 61.42 58.0589 61.42C57.4595 61.42 57.5451 61.42 57.3738 61.5911C56.86 61.7622 56.5175 62.1899 56.3462 62.6176C56.175 63.1309 56.2606 63.6441 56.4319 64.0719C58.4014 67.5791 62.0836 69.7177 66.1084 69.7177C70.1331 69.7177 67.9923 69.6322 68.8486 69.3755C70.0475 72.284 72.5308 74.5937 75.528 75.6202C76.3843 75.8768 77.3263 76.0479 78.1826 76.1334C78.1826 76.3901 78.1826 76.7322 78.2682 76.9889C78.3539 77.5021 78.4395 78.0154 78.5251 78.4431C78.8676 82.9769 76.0418 87.083 71.5889 88.4517C70.2187 88.8794 69.1911 89.9914 68.9342 91.2746C68.763 92.4722 68.1636 93.5843 67.2216 94.4397C65.9371 95.7228 64.2245 96.3216 62.4262 96.1506C60.1997 95.0385 58.6583 92.8144 58.4014 90.3336C58.3158 89.3926 57.5451 88.7083 56.6031 88.7083C56.0893 88.7083 55.5755 88.9649 55.233 89.3071C54.8905 89.6493 54.7192 90.1625 54.8048 90.6758C55.0617 93.071 56.0893 95.2096 57.7164 97.006C57.6307 97.0915 57.5451 97.2626 57.3738 97.3482C57.2026 97.6048 57.0313 97.7759 56.86 97.947C55.7468 99.059 54.2054 99.7434 52.4928 99.7434L52.7497 100ZM68.5061 35.6715C71.4176 37.3824 72.7877 40.8896 71.8458 44.0547C71.5889 44.9102 72.017 45.8512 72.8734 46.1933C73.3871 46.3644 73.9009 46.3644 74.5004 46.1933C75.0998 46.0222 75.1854 45.5945 75.3567 45.1668C76.6412 40.9752 75.2711 36.4414 71.9314 33.6185C76.0418 30.0257 76.8125 24.0376 73.7297 19.5038C73.3871 18.9906 72.8734 18.734 72.2739 18.734C71.6745 18.734 71.4176 18.905 71.0751 19.1617C70.39 19.7605 70.2187 20.787 70.7325 21.5569C72.8734 24.6364 72.2739 28.8281 69.2768 31.2233C67.9067 32.3353 66.2796 32.9341 64.567 32.9341C62.8543 32.9341 60.7991 32.1642 59.3434 30.8811C59.0009 30.5389 58.5727 30.3678 58.0589 30.3678C57.5451 30.3678 57.2026 30.5389 56.9457 30.7956C56.5175 31.1377 56.3462 31.5654 56.2606 32.0787C56.2606 32.592 56.4319 33.1052 56.7744 33.4474C58.8296 35.4149 61.5698 36.5269 64.4813 36.5269C67.3929 36.5269 67.2216 36.2703 68.5061 35.7571V35.6715Z" fill="#5CDCFF"/>
</g>
<defs>
<clipPath id="clip0_1872_291">
<rect width="90" height="100" fill="white"/>
</clipPath>
</defs>
</svg>
