<svg width="90" height="100" viewBox="0 0 90 100" fill="none" xmlns="http://www.w3.org/2000/svg">
<g clip-path="url(#clip0_1886_76)">
<path d="M37.2502 100C35.6232 100 34.0818 99.4012 32.883 98.2036C32.7117 98.0325 32.5404 97.7758 32.3692 97.6048C32.2835 97.5192 32.1979 97.3481 32.0266 97.2626C33.6537 95.5517 34.6813 93.3276 34.9382 90.9324C34.9382 90.4191 34.8525 89.9059 34.51 89.5637C34.1675 89.2215 33.6537 88.9649 33.1399 88.9649C32.1979 88.9649 31.4272 89.6492 31.3416 90.5902C31.0847 93.071 29.5433 95.2095 27.3168 96.4072C25.5186 96.5782 23.8059 95.8939 22.5214 94.6963C21.6651 93.8409 21.0657 92.7288 20.8088 91.5312C20.5519 90.248 19.5243 89.136 18.1541 88.7083C13.7012 87.3396 10.8754 83.2335 11.2179 78.6997C11.2179 78.272 11.3035 77.7587 11.4748 77.2455C11.4748 76.9889 11.5604 76.6467 11.5604 76.39C12.5024 76.39 13.3587 76.1334 14.215 75.8768C17.2978 74.8503 19.6955 72.5406 20.8944 69.6321C21.8363 69.8888 22.6927 69.9743 23.6346 69.9743C27.6594 69.9743 31.4272 67.8357 33.3111 64.3285C33.568 63.9007 33.568 63.3875 33.3968 62.8742C33.2255 62.361 32.883 62.0188 32.3692 61.8477C32.1123 61.7622 31.941 61.6766 31.6841 61.6766C30.999 61.6766 30.3996 62.0188 30.1427 62.6176C28.8582 64.9273 26.3749 66.467 23.6346 66.467C20.8944 66.467 22.2645 66.3815 21.6651 66.2104C21.6651 65.1839 21.6651 64.2429 21.4082 63.2164C21.2369 62.4465 20.4662 61.8477 19.6099 61.8477C18.7536 61.8477 19.0105 61.9332 18.6679 62.1043C17.9829 62.4465 17.6403 63.3019 17.8116 64.0718C18.6679 67.7502 16.5271 71.343 12.9305 72.5406C12.1598 72.7972 11.3892 72.9683 10.5328 72.9683C9.6765 72.9683 8.9058 72.8828 8.13511 72.6261C6.76499 71.9418 5.56613 71.0008 4.7098 69.8888C3.08278 68.0924 2.22645 65.7827 2.31208 63.3875C2.31208 61.42 2.91151 59.538 4.11037 57.9127C5.13796 56.4585 4.9667 54.5765 3.76784 53.2078C1.37012 50.1283 0 46.5355 0 42.8571C0 38.1522 2.31208 33.8751 6.07992 31.0522C7.36441 30.1112 7.87821 28.5714 7.45005 26.9461C7.19315 26.0051 7.02188 25.0641 7.02188 24.0376C7.02188 19.7605 9.6765 15.911 13.7869 14.3712C15.3283 13.7724 16.2702 12.3182 16.2702 10.6929C16.2702 10.3507 16.2702 10.0941 16.2702 9.7519C16.6127 7.35669 18.5823 5.30365 21.0657 4.79039C21.4938 4.70485 21.922 4.6193 22.3501 4.6193C22.7783 4.6193 23.2921 4.6193 23.7203 4.79039C23.9772 4.79039 24.2341 4.87593 24.5766 4.87593C24.5766 4.87593 24.6622 4.87593 24.7479 4.96148C27.8306 7.10006 28.7726 11.2061 26.9743 14.4568C25.176 17.7074 26.7174 15.9965 27.2312 16.5098C27.745 17.0231 28.0875 17.1086 28.6013 17.1086C29.1151 17.1086 29.8858 16.7664 30.1427 16.2532C32.6261 11.8905 31.6841 6.33017 28.0019 2.90844C29.1151 1.11203 31.0847 -0.0855713 33.2255 -0.0855713C34.8525 -0.0855713 36.3083 0.513231 37.4215 1.53975L37.5928 1.71084H37.8497C39.9049 1.96747 41.6175 3.16507 42.5595 4.96148C42.5595 5.04702 42.6451 5.21811 42.7307 5.38919L43.1589 7.01451C43.1589 7.10006 43.1589 7.27114 43.1589 7.35669C43.1589 7.61332 43.1589 7.86995 43.1589 8.12658V8.29766V46.621C42.3882 46.4499 41.6175 46.3644 40.8468 46.3644C37.4215 46.3644 34.2531 47.9042 32.1123 50.556C31.7697 50.9837 31.6841 51.497 31.7697 52.0102C31.8554 52.5235 32.1979 52.9512 32.6261 53.2078C32.883 53.3789 33.2255 53.4645 33.568 53.4645C34.1675 53.4645 34.6813 53.2078 35.0238 52.7801C36.3939 50.9837 38.6204 49.9572 40.9324 49.9572C43.2445 49.9572 42.4738 50.0427 43.2445 50.2994V94.5252C43.1589 95.2951 42.902 96.065 42.4738 96.7493C42.2169 97.2626 41.8744 97.6903 41.4462 98.2036C40.333 99.3156 38.7916 99.9144 37.1646 99.9144L37.2502 100ZM18.1541 33.6184C14.9001 36.3558 13.4443 40.8041 14.6432 44.9101C15.8421 49.0162 15.2426 46.1078 15.8421 46.2788C16.4415 46.4499 16.9553 46.3644 17.3834 46.1078C18.0685 45.68 18.3254 44.8246 18.0685 44.0547C17.1265 40.8896 18.4967 37.3823 21.4082 35.757C22.6927 36.2703 24.0628 36.5269 25.4329 36.5269C28.3444 36.5269 31.0847 35.4149 33.1399 33.4474C33.4824 33.1052 33.7393 32.5919 33.6537 32.0787C33.6537 31.5654 33.3968 31.0522 32.9686 30.7955C32.6261 30.5389 32.1979 30.3678 31.8554 30.3678C31.5128 30.3678 30.9134 30.5389 30.5709 30.8811C29.2008 32.2498 27.3168 32.9341 25.3473 32.9341C23.3777 32.9341 21.922 32.3353 20.6375 31.2232C17.726 28.828 17.1265 24.722 19.1817 21.5569C19.6955 20.787 19.5243 19.7605 18.8392 19.1616C18.4967 18.905 18.0685 18.7339 17.6403 18.7339C17.0409 18.7339 16.5271 18.9906 16.1846 19.5038C13.1018 24.0376 13.8725 30.0256 17.9829 33.6184H18.1541Z" fill="#3D99F4"/>
<path d="M52.7498 100C51.1227 100 49.5813 99.4012 48.4681 98.2891C48.04 97.8614 47.6974 97.3482 47.4405 96.9204C47.0124 96.2361 46.8411 95.4662 46.7555 94.6963V94.3541V50.4705C47.5262 50.2139 48.2969 50.1283 49.0675 50.1283C51.3796 50.1283 53.5204 51.1548 54.9762 52.9512C55.3187 53.379 55.8325 53.6356 56.432 53.6356C57.0314 53.6356 57.117 53.55 57.3739 53.379C57.8021 53.1223 58.1446 52.6946 58.2302 52.1814C58.3159 51.6681 58.2302 51.1548 57.8877 50.7271C55.7469 48.0753 52.5785 46.5355 49.1532 46.5355C45.7279 46.5355 47.6118 46.5355 46.8411 46.7921V8.21215C46.8411 7.95552 46.8411 7.69889 46.8411 7.44226C46.8411 7.27117 46.8411 7.18563 46.8411 7.01454L47.2693 5.38922C47.2693 5.21814 47.3549 5.13259 47.4405 4.96151C48.3825 3.1651 50.1808 1.96749 52.1503 1.79641H52.4072L52.6641 1.53978C53.6917 0.598802 55.1475 0 56.6032 0C58.8297 0 60.8849 1.11206 61.9125 2.99401C58.2303 6.3302 57.2883 11.976 59.7716 16.3388C60.1142 16.852 60.7136 17.1942 61.313 17.1942C61.9125 17.1942 62.4263 16.9376 62.8544 16.4243C63.2826 15.911 63.2826 15.1411 62.8544 14.5423C60.9705 11.2917 61.9125 7.18563 65.0809 5.04705C65.0809 5.04705 65.1665 5.04705 65.2521 4.96151C65.509 4.96151 65.8516 4.96151 66.1085 4.87596C66.5366 4.79042 66.9648 4.70488 67.4786 4.70488C67.9924 4.70488 68.3349 4.70488 68.7631 4.87596C71.1608 5.38922 73.1303 7.44226 73.5585 9.83747C73.5585 10.1796 73.5585 10.5218 73.5585 10.7784C73.5585 12.4038 74.5861 13.858 76.0419 14.4568C80.1522 15.9966 82.8068 19.846 82.8068 24.1232C82.8068 25.1497 82.7212 26.0907 82.3787 27.0317C81.9505 28.5714 82.3787 30.1968 83.7488 31.1377C87.6023 33.9607 89.8287 38.2378 89.8287 42.9427C89.8287 46.7066 88.4586 50.2994 85.9753 53.0368C84.7764 54.4055 84.6051 56.2874 85.6327 57.7417C86.7459 59.367 87.431 61.2489 87.431 63.2164C87.431 65.6116 86.5747 67.8358 85.0333 69.6322C84.0913 70.8298 82.8925 71.7707 81.608 72.3695C80.8373 72.6262 80.0666 72.7117 79.2103 72.7117C78.3539 72.7117 77.5832 72.5406 76.8125 72.284C73.216 71.0864 71.0752 67.408 71.9315 63.8152C72.1028 62.8742 71.6746 62.0188 70.7326 61.6766C70.5614 61.6766 70.3901 61.5911 70.1332 61.5911C69.2769 61.5911 68.5918 62.1899 68.3349 62.9598C68.078 63.9008 67.9924 64.9273 68.078 65.9538C67.393 66.1249 66.7935 66.2104 66.1085 66.2104C63.3682 66.2104 60.8849 64.7562 59.6004 62.361C59.2578 61.7622 58.6584 61.42 58.059 61.42C57.4596 61.42 57.5452 61.42 57.3739 61.5911C56.8601 61.7622 56.5176 62.1899 56.3463 62.6176C56.1751 63.1309 56.2607 63.6441 56.432 64.0719C58.4015 67.5791 62.0837 69.7177 66.1085 69.7177C70.1332 69.7177 67.9924 69.6322 68.8487 69.3755C70.0476 72.284 72.5309 74.5937 75.5281 75.6202C76.3844 75.8768 77.3264 76.0479 78.1827 76.1334C78.1827 76.3901 78.1827 76.7322 78.2683 76.9889C78.3539 77.5021 78.4396 78.0154 78.5252 78.4431C78.8677 82.9769 76.0419 87.083 71.589 88.4517C70.2188 88.8794 69.1912 89.9914 68.9343 91.2746C68.7631 92.4722 68.1636 93.5843 67.2217 94.4397C65.9372 95.7228 64.2245 96.3216 62.4263 96.1506C60.1998 95.0385 58.6584 92.8144 58.4015 90.3336C58.3159 89.3926 57.5452 88.7083 56.6032 88.7083C56.0894 88.7083 55.5756 88.9649 55.2331 89.3071C54.8906 89.6493 54.7193 90.1625 54.8049 90.6758C55.0618 93.071 56.0894 95.2096 57.7165 97.006C57.6308 97.0915 57.5452 97.2626 57.3739 97.3482C57.2027 97.6048 57.0314 97.7759 56.8601 97.947C55.7469 99.059 54.2055 99.7434 52.4929 99.7434L52.7498 100ZM68.5062 35.6715C71.4177 37.3824 72.7878 40.8896 71.8459 44.0547C71.589 44.9102 72.0171 45.8512 72.8734 46.1933C73.3872 46.3644 73.901 46.3644 74.5005 46.1933C75.0999 46.0222 75.1855 45.5945 75.3568 45.1668C76.6413 40.9752 75.2712 36.4414 71.9315 33.6185C76.0419 30.0257 76.8126 24.0376 73.7298 19.5038C73.3872 18.9906 72.8734 18.734 72.274 18.734C71.6746 18.734 71.4177 18.905 71.0752 19.1617C70.3901 19.7605 70.2188 20.787 70.7326 21.5569C72.8734 24.6364 72.274 28.8281 69.2769 31.2233C67.9067 32.3353 66.2797 32.9341 64.5671 32.9341C62.8544 32.9341 60.7992 32.1642 59.3435 30.8811C59.0009 30.5389 58.5728 30.3678 58.059 30.3678C57.5452 30.3678 57.2027 30.5389 56.9458 30.7956C56.5176 31.1377 56.3463 31.5654 56.2607 32.0787C56.2607 32.592 56.432 33.1052 56.7745 33.4474C58.8297 35.4149 61.5699 36.5269 64.4814 36.5269C67.393 36.5269 67.2217 36.2703 68.5062 35.7571V35.6715Z" fill="#3D99F4"/>
</g>
<defs>
<clipPath id="clip0_1886_76">
<rect width="90" height="100" fill="white"/>
</clipPath>
</defs>
</svg>
