<svg width="96" height="100" viewBox="0 0 96 100" fill="none" xmlns="http://www.w3.org/2000/svg">
<path d="M63.2766 8.7184V22.1447C63.2766 26.9398 59.3437 30.8631 54.5367 30.8631H32.5123V8.7184C32.5123 3.92328 36.4452 0 41.2522 0H54.5367C59.3437 0 63.2766 3.92328 63.2766 8.7184Z" fill="#5CDCFF"/>
<path d="M63.364 69.1369V91.2816C63.364 96.0767 59.4311 100 54.6241 100H41.3396C36.5326 100 32.5997 96.0767 32.5997 91.2816V77.8553C32.5997 73.0602 36.5326 69.1369 41.3396 69.1369H63.364Z" fill="#5CDCFF"/>
<path d="M43.6119 36.5301L64.4128 62.1622C65.4616 63.4699 64.5002 65.4752 62.8396 65.4752H8.73986C3.93294 65.4752 0 61.5519 0 56.7568V43.5048C0 38.7097 3.93294 34.7864 8.73986 34.7864H40.0286C41.4269 34.7864 42.7379 35.3967 43.6993 36.5301H43.6119Z" fill="#5CDCFF"/>
<path d="M95.8763 43.5048V56.7568C95.8763 61.5519 91.9434 65.4752 87.1364 65.4752H73.2401C72.3661 65.4752 71.5795 65.1264 71.0551 64.4289L50.7786 39.32C49.2928 37.4891 50.6038 34.7864 52.9636 34.7864H87.2238C92.0308 34.7864 95.9637 38.7097 95.9637 43.5048H95.8763Z" fill="#5CDCFF"/>
</svg>
