<svg width="385" height="400" viewBox="0 0 385 400" fill="none" xmlns="http://www.w3.org/2000/svg">
<path d="M259.984 389.818C229.245 420.557 188.799 436 148.5 436V335.988C160.119 329.222 171.15 320.839 181.151 310.984C211.89 280.245 227.333 239.799 227.333 199.5H285.135C319.992 259.802 311.609 338.194 259.984 389.818Z" fill="#F2F6F9"/>
<path d="M148.5 278.333V335.988C88.1984 370.845 9.80627 362.461 -41.8178 310.984C-72.5569 280.245 -88 239.946 -88 199.5H12.0124C18.778 211.119 27.1614 222.15 37.1626 232.151C67.9017 262.89 108.348 278.333 148.647 278.333H148.5Z" fill="#3D99F4"/>
<path d="M385 199.5H285.135C278.369 187.881 269.986 176.85 259.984 166.849C229.245 136.11 188.799 120.667 148.5 120.667V62.8654C208.802 28.0081 287.194 36.3915 338.818 88.0155C369.557 118.755 385 159.201 385 199.5Z" fill="#3D99F4"/>
<path d="M148.5 -37V62.8654C136.881 69.6309 125.85 78.0143 115.849 88.0155C85.1098 118.755 69.6667 159.201 69.6667 199.5H11.8654C-22.9919 139.198 -14.6085 60.8063 37.0155 9.18221C67.7547 -21.5569 108.201 -37 148.5 -37Z" fill="#F2F6F9"/>
</svg>
