<svg width="504" height="151" viewBox="0 0 504 151" fill="none" xmlns="http://www.w3.org/2000/svg">
<path d="M113.62 107.3C111.22 111.09 108.03 114.38 104.25 116.95C96.0096 122.47 86.1296 125.31 76.0796 125.06C69.1896 125.19 62.3596 123.93 56.0096 121.37C50.3896 119.01 45.4095 115.44 41.4595 110.95C37.4695 106.33 34.4995 101 32.7195 95.26C30.6795 88.96 29.6796 82.39 29.7496 75.8C29.6596 69.08 30.6595 62.3999 32.7195 55.9699C34.4595 50.2999 37.3495 45.02 41.2095 40.4C45.0295 35.95 49.9195 32.44 55.4695 30.18C61.6795 27.75 68.3596 26.59 75.0696 26.77C81.6896 26.67 88.2695 27.83 94.4195 30.18C99.9595 32.34 104.83 35.8299 108.55 40.3199C112.39 45.0399 114.89 50.62 115.81 56.54H144.919C143.939 46.08 140.229 36.01 134.139 27.27C128.139 18.85 119.87 12.13 110.21 7.81C99.1995 2.99 87.1896 0.60995 75.0796 0.87995C63.5596 0.60995 52.1096 2.7699 41.5596 7.1999C32.5696 11.0999 24.5995 16.8599 18.2195 24.0699C12.1295 30.9399 7.48962 38.87 4.55962 47.42C1.69962 55.84 0.269627 64.6399 0.319627 73.4899V77.7499C0.389627 86.1499 1.81962 94.4999 4.55962 102.48C7.46962 111.11 11.9995 119.16 17.9295 126.24C24.2995 133.73 32.3495 139.77 41.4795 143.92C52.3195 148.71 64.1697 151.04 76.0997 150.73C88.7297 151.01 101.23 148.35 112.55 142.99C122.26 138.33 130.53 131.35 136.57 122.72C142.39 114.38 146.089 104.86 147.389 94.91H118.24C117.61 99.3 116.049 103.53 113.649 107.32L113.62 107.3Z" fill="#AE4A74"/>
<path d="M160.09 61.7H175.59V145.09H203.92V61.7V41.96V41.92H155.84L160.09 61.7Z" fill="#AE4A74"/>
<path d="M179.34 28.86C181.46 29.54 183.72 29.8 185.95 29.61C188.19 29.79 190.44 29.5101 192.55 28.8001C194.66 28.0901 196.58 26.96 198.18 25.49C200.84 22.61 202.23 18.91 202.09 15.12C202.25 11.36 200.85 7.69002 198.18 4.87002C196.56 3.44002 194.63 2.34006 192.52 1.66006C190.41 0.980061 188.17 0.720061 185.94 0.910061C183.7 0.730061 181.45 0.990071 179.33 1.67007C177.21 2.35007 175.26 3.44002 173.62 4.87002C170.86 7.71002 169.43 11.4501 169.63 15.2801C169.49 19.0801 170.92 22.7901 173.62 25.6501C175.26 27.0801 177.2 28.17 179.32 28.86H179.34Z" fill="#AE4A74"/>
<path d="M351.97 27.6199C353.55 29.1699 355.42 30.3499 357.47 31.0799C359.51 31.8199 361.69 32.09 363.84 31.89C365.98 32.07 368.13 31.77 370.15 31.02C372.17 30.26 374.01 29.0599 375.55 27.4899C378.07 24.3699 379.39 20.38 379.26 16.29C379.43 12.23 378.11 8.26 375.59 5.18C374.03 3.64 372.18 2.45991 370.15 1.71991C368.12 0.979915 365.98 0.699968 363.84 0.899968C361.69 0.709968 359.52 0.989915 357.48 1.71991C355.44 2.45991 353.56 3.62999 351.98 5.16999C349.35 8.24999 347.99 12.29 348.19 16.41C348.05 20.51 349.4 24.5199 351.98 27.6099L351.97 27.6199Z" fill="#AE4A74"/>
<path d="M356.65 43.28H328.36H322.54H301.73L279.7 123.75H274.97L249.3 43.28H220.89L254.69 144.94H262.97L291.96 145.09V144.94H299L321.83 65.9H356.65V145.09H387.76V43.28H382.1H356.65Z" fill="#AE4A74"/>
<path d="M500.97 104.35C499.06 100.47 496.22 97.1 492.71 94.52C484.09 88.5 473.92 84.99 463.37 84.39L454.04 83.43C449.74 83.19 445.57 81.95 441.87 79.8C440.63 78.94 439.64 77.7799 438.97 76.4499C438.3 75.1099 437.99 73.63 438.05 72.14C438.04 70.46 438.47 68.7999 439.29 67.3299C440.12 65.8599 441.31 64.6099 442.76 63.7199C446.72 61.2999 451.34 60.1599 455.99 60.4499C461.17 60.1599 466.31 61.5599 470.6 64.4399C472.14 65.4799 473.42 66.85 474.36 68.43C475.3 70.02 475.87 71.7899 476.04 73.6099H500.39C500.48 68.7899 499.37 64.0299 497.17 59.7199C494.96 55.4199 491.73 51.71 487.73 48.91C478.38 42.92 467.35 39.9799 456.2 40.4899C448.65 40.3499 441.15 41.6199 434.09 44.2399C428.09 46.4099 422.85 50.2299 419 55.2499C415.24 60.4999 413.33 66.8199 413.56 73.2399C413.39 77.2899 414.17 81.32 415.82 85.03C417.47 88.74 419.96 92.04 423.09 94.66C430.95 100.61 440.46 104.09 450.36 104.63L459.69 105.59C464.91 105.7 470.02 107.07 474.58 109.58C475.96 110.47 477.08 111.69 477.85 113.13C478.62 114.57 479 116.17 478.96 117.8C478.98 119.7 478.47 121.58 477.49 123.22C476.51 124.86 475.1 126.22 473.4 127.13C468.65 129.66 463.29 130.86 457.9 130.6C451.85 131.09 445.81 129.53 440.78 126.17C439.17 125.03 437.8 123.58 436.76 121.9C435.72 120.23 435.03 118.37 434.74 116.43H410.39C410.37 121.32 411.52 126.14 413.74 130.51C415.96 134.88 419.19 138.68 423.17 141.6C431.39 147.66 442.8 150.7 457.37 150.7C465.7 150.89 473.99 149.46 481.76 146.47C488.16 144.07 493.77 140 497.99 134.7C501.85 129.51 503.87 123.22 503.71 116.79C503.83 112.48 502.9 108.2 500.98 104.32L500.97 104.35Z" fill="#AE4A74"/>
</svg>
