<svg width="367" height="126" viewBox="0 0 367 126" fill="none" xmlns="http://www.w3.org/2000/svg">
<path d="M190.666 38.9462C189.6 37.0714 188.235 35.7078 186.528 34.8556C184.822 34.0034 182.945 33.279 180.898 32.7251C178.851 32.1711 176.846 31.7024 174.798 31.2763C172.751 30.8502 170.874 30.3389 169.168 29.6997C167.462 29.0605 166.097 28.0805 165.031 26.7596C163.964 25.396 163.452 23.6916 163.452 21.6037C163.452 19.5157 164.348 16.7886 166.182 15.0842C168.016 13.3798 170.576 12.5276 173.817 12.5276C177.059 12.5276 177.998 12.9111 179.576 13.6781C181.111 14.445 182.263 15.3399 182.988 16.4478C183.713 17.5556 184.31 18.5783 184.78 19.6862C185.291 20.7514 185.803 21.6889 186.443 22.4133C187.04 23.1802 187.808 23.5637 188.704 23.5637C190.538 23.5637 191.476 22.6689 191.476 20.8793C191.476 18.2374 189.898 15.766 186.742 13.4224C183.585 11.0788 179.363 9.92831 174.073 9.92831C168.784 9.92831 164.775 11.164 161.831 13.5928C158.846 16.0216 157.353 19.1748 157.353 23.0098C157.353 26.8448 157.865 27.9953 158.931 29.7849C159.997 31.5746 161.362 32.8955 163.026 33.7051C164.689 34.5147 166.566 35.1965 168.614 35.6652C170.661 36.1765 172.708 36.6026 174.756 36.9861C176.803 37.3696 178.637 37.9236 180.344 38.5627C182.007 39.2019 183.372 40.2672 184.438 41.6733C185.505 43.1221 186.017 44.9543 186.017 47.1701C186.017 49.3859 185.036 51.9851 183.031 53.6469C181.026 55.3088 178.467 56.161 175.268 56.161C172.069 56.161 170.618 55.7775 168.869 54.9679C167.121 54.1583 165.798 53.1782 164.945 52.0703C164.092 50.9198 163.367 49.7694 162.77 48.6189C162.173 47.4684 161.533 46.4457 160.893 45.6361C160.253 44.8265 159.485 44.3578 158.632 44.3152C157.822 44.3152 157.182 44.5708 156.756 45.0396C156.286 45.5083 156.073 46.1901 156.073 46.9997C156.073 49.5563 157.737 52.1556 161.106 54.7974C164.476 57.4393 169.083 58.8028 175.012 58.8028C180.941 58.8028 183.927 57.6097 187.254 55.2235C190.581 52.8373 192.202 49.6841 192.202 45.764C192.202 41.8438 191.69 40.7359 190.623 38.9036L190.666 38.9462Z" fill="#F2F6F9"/>
<path d="M227.775 56.374C227.434 56.2036 227.008 56.0331 226.581 55.9479C226.112 55.8201 225.685 55.5218 225.301 55.0105C224.875 54.4992 224.662 53.7748 224.576 52.8373L223.254 39.5002C222.785 35.026 221.377 31.532 218.903 29.0605C216.472 26.5891 213.188 25.3534 209.135 25.3534C205.083 25.3534 202.78 26.1204 200.562 27.6118C198.344 29.1031 197.235 30.8076 197.235 32.6824C197.235 34.5573 197.491 34.046 197.96 34.4721C198.429 34.8982 199.069 35.1539 199.879 35.1539C200.69 35.1539 201.244 34.7278 201.756 33.9608C202.311 33.1512 202.737 32.299 203.121 31.3615C203.505 30.4241 204.187 29.5719 205.254 28.7623C206.278 27.9527 207.6 27.5692 209.135 27.5692C211.737 27.5692 213.657 28.5918 214.894 30.5945C216.131 32.5972 216.984 35.6652 217.368 39.7984L217.496 41.5881C215.576 39.7984 212.804 38.9036 209.221 38.9036C205.638 38.9036 202.609 39.7558 200.306 41.5029C198.003 43.2499 196.851 45.6787 196.936 48.8319C196.936 51.9851 198.088 54.4992 200.349 56.2888C202.609 58.0785 205.638 58.9733 209.391 58.9733C213.145 58.9733 217.368 57.3967 219.074 54.2861C219.202 56.0331 219.671 57.1836 220.439 57.8228C221.207 58.4193 222.401 58.7176 223.979 58.7176C226.837 58.7176 228.287 58.2489 228.287 57.3115C228.287 56.374 228.117 56.6723 227.733 56.5019L227.775 56.374ZM216.301 54.5844C214.936 55.9905 213.102 56.7149 210.927 56.7149C208.752 56.7149 206.619 55.8627 205.126 54.2009C203.633 52.5391 202.865 50.4511 202.865 47.9371C202.865 45.4231 203.59 44.1874 204.998 42.909C206.406 41.6307 208.282 40.9489 210.586 40.9489C212.889 40.9489 214.126 41.4603 215.448 42.4403C216.771 43.4204 217.624 44.6987 217.965 46.3179L218.221 49.3433C218.306 51.4312 217.666 53.2208 216.259 54.627L216.301 54.5844Z" fill="#F2F6F9"/>
<path d="M255.586 12.9111L254.52 10.7805C253.923 9.71525 253.155 9.54481 252.089 10.3118L240.273 18.7487C239.676 19.2601 239.548 19.7714 239.889 20.3679C240.231 20.9219 240.828 21.0497 241.638 20.8367L254.648 15.0842C255.202 14.9138 255.544 14.6155 255.672 14.232C255.842 13.8485 255.799 13.4224 255.586 12.9537V12.9111ZM264.16 56.2888C263.776 56.1184 263.349 55.9905 262.88 55.9053C262.411 55.8201 261.984 55.5218 261.601 54.9253C261.174 54.3287 261.003 53.4765 261.003 52.3686V26.3334C261.003 25.5665 260.406 25.3108 259.255 25.5238L253.539 26.5465C252.856 26.6743 252.515 27.0152 252.515 27.5692V27.7822C252.515 28.0805 252.942 28.5918 253.837 29.2736C254.69 29.9554 255.16 30.765 255.16 31.7024V46.0622C255.16 49.0876 254.349 51.559 252.728 53.4339C251.107 55.3088 249.06 56.2462 246.671 56.2462C244.283 56.2462 242.15 55.1809 240.785 53.0504C239.42 50.9198 238.738 47.9371 238.738 44.0169L238.823 26.3761C238.823 25.6091 238.226 25.3534 237.031 25.5665L231.401 26.5891C230.719 26.7169 230.377 27.0578 230.377 27.6118V27.8248C230.377 28.0805 230.804 28.5492 231.614 29.231C232.425 29.9127 232.851 30.7224 232.851 31.7024V43.5908C232.851 48.4484 233.96 52.2408 236.221 54.8826C238.482 57.5245 241.51 58.8881 245.264 58.8881C249.017 58.8881 253.539 57.0132 255.586 53.2634L255.714 53.6469C255.586 56.9706 257.207 58.6324 260.619 58.6324C264.032 58.6324 264.8 58.1637 264.8 57.2262C264.8 56.2888 264.586 56.5445 264.202 56.374L264.16 56.2888Z" fill="#F2F6F9"/>
<path d="M301.013 55.8201C300.203 55.1383 299.776 54.3713 299.776 53.4765V8.99087C299.776 7.79777 299.094 7.45688 297.686 7.96821L292.227 9.80047C291.544 10.0987 291.203 10.4822 291.203 10.951V11.0788C291.203 11.3771 291.459 11.6753 291.928 11.931C292.397 12.1867 292.866 12.5702 293.336 13.0815C293.805 13.5928 294.061 14.232 294.061 15.0416V29.6571C291.501 26.7596 288.26 25.3108 284.335 25.3108C280.411 25.3108 276.103 26.8874 273.117 29.998C270.131 33.1512 268.596 37.1566 268.596 42.0142C268.596 46.8718 270.131 51.0051 273.16 54.1583C276.188 57.2688 279.857 58.8454 284.122 58.8454C288.388 58.8454 288.132 58.4193 289.923 57.5245C291.715 56.6297 293.208 55.394 294.317 53.7322L294.445 57.0984C294.53 57.8228 294.914 58.1637 295.596 58.1637H301.227C301.909 58.1637 302.25 57.908 302.25 57.4393V57.2262C302.25 56.9706 301.824 56.5019 301.013 55.8201ZM294.061 46.957C294.061 49.9398 293.165 52.326 291.416 54.0304C289.625 55.7349 287.705 56.6297 285.53 56.6297C282.203 56.6297 279.515 54.9679 277.425 51.7721C275.335 48.5763 274.312 44.6561 274.397 40.0115C274.44 36.2617 275.378 33.2364 277.169 30.9354C278.961 28.6344 281.35 27.4839 284.25 27.4839C287.151 27.4839 289.198 28.464 291.117 30.4667C293.08 32.4694 294.018 34.5999 294.018 36.8583V43.5482L294.103 46.957H294.018H294.061Z" fill="#F2F6F9"/>
<path d="M335.265 48.1502C334.71 48.0223 334.284 48.2354 333.985 48.7041C332.194 52.5817 328.995 54.5418 324.388 54.5418C319.781 54.5418 319.312 53.7322 317.35 52.113C315.388 50.4937 314.066 48.1928 313.298 45.2952L331.895 39.2019C333.985 38.4775 335.052 37.1566 335.052 35.2391C335.052 33.3216 333.9 30.3815 331.639 28.3788C329.379 26.3334 326.35 25.3108 322.554 25.3108C318.758 25.3108 314.322 26.8874 311.293 30.0406C308.265 33.1938 306.729 37.114 306.729 41.8011C306.729 46.4883 308.222 51.0051 311.208 54.1583C314.194 57.2688 317.905 58.8455 322.298 58.8455C326.691 58.8455 329.251 57.8228 331.639 55.8201C334.028 53.8174 335.436 51.6016 335.947 49.258C336.033 48.6189 335.82 48.278 335.265 48.1502ZM312.573 39.6706C312.573 36.1765 313.383 33.279 315.047 30.9354C316.71 28.5918 318.886 27.4413 321.573 27.4413C324.26 27.4413 325.582 28.3361 327.118 30.1258C328.654 31.9155 329.421 33.6625 329.421 35.3669C329.421 37.0714 328.867 37.2844 327.8 37.7105L312.829 43.0795C312.658 42.142 312.573 40.9915 312.573 39.6706Z" fill="#F2F6F9"/>
<path d="M364.867 43.8465C363.46 42.3977 361.753 41.4177 359.749 40.8637C357.744 40.3098 355.739 39.8411 353.734 39.3723C351.73 38.9462 350.023 38.2218 348.616 37.2418C347.208 36.3044 346.483 34.9408 346.483 33.1938C346.483 31.4467 347.123 30.1684 348.445 29.0179C349.768 27.91 351.431 27.3561 353.393 27.3561C355.355 27.3561 356.806 27.7822 357.957 28.6344C359.109 29.4866 359.877 30.4241 360.261 31.4467C360.644 32.4694 361.114 33.4068 361.711 34.259C362.308 35.1113 362.99 35.5374 363.801 35.5374C364.611 35.5374 365.038 35.3243 365.507 34.8556C365.976 34.4295 366.232 33.8329 366.232 33.1938C366.232 31.2337 365.038 29.4014 362.607 27.7396C360.175 26.0778 357.019 25.2682 353.137 25.2682C349.256 25.2682 346.44 26.163 344.052 27.91C341.663 29.6571 340.511 31.8728 340.511 34.4295C340.511 36.9861 341.194 38.7758 342.644 40.1819C344.052 41.6307 345.758 42.6108 347.763 43.1221C349.768 43.676 351.772 44.1447 353.82 44.5708C355.824 44.997 357.531 45.6787 358.938 46.7014C360.346 47.6814 361.071 49.0876 361.071 50.8772C361.071 52.6669 360.346 54.1583 358.938 55.2235C357.488 56.2888 355.654 56.8001 353.436 56.8001C351.218 56.8001 350.407 56.5019 349.256 55.9479C348.147 55.394 347.336 54.7122 346.824 53.9026C346.312 53.093 345.886 52.2834 345.502 51.4738C345.161 50.6642 344.734 49.9824 344.265 49.4285C343.796 48.8745 343.156 48.5763 342.431 48.5763C340.682 48.5763 339.829 49.3859 339.829 51.0477C339.829 52.7095 341.066 54.5418 343.54 56.2036C346.014 57.8654 349.341 58.675 353.436 58.675C357.531 58.675 360.772 57.8228 363.289 56.0758C365.763 54.3713 367 52.1982 367 49.5989C367 46.9997 366.275 45.1674 364.867 43.7186V43.8465Z" fill="#F2F6F9"/>
<path d="M195.785 115.177C195.358 114.921 194.761 114.58 194.036 114.112C193.311 113.643 192.671 113.046 192.202 112.322L181.453 97.4934C185.078 96.4707 187.893 94.7663 189.856 92.3801C191.818 89.9939 192.799 87.2668 192.799 84.1136C192.756 79.256 190.879 75.5489 187.168 73.0774C183.457 70.606 178.552 69.3703 172.538 69.3703H158.76C157.865 69.3703 157.438 69.626 157.438 70.1799V70.3077C157.438 70.606 157.822 71.1173 158.632 71.7565C159.443 72.3957 159.827 73.1627 159.827 74.0575V112.279C159.827 113.174 159.443 113.941 158.632 114.58C157.822 115.219 157.438 115.688 157.438 116.029V116.157C157.438 116.711 157.907 116.967 158.76 116.967H167.206C168.102 116.967 168.571 116.711 168.571 116.157V116.029C168.571 115.731 168.358 115.39 167.888 115.092C167.419 114.793 166.993 114.41 166.566 113.941C166.14 113.472 165.926 112.918 165.926 112.279V98.6013L173.988 98.4735C174.756 98.4735 175.31 98.4734 175.652 98.3882L185.718 112.279C186.102 113.174 186.23 113.771 186.059 114.069C185.889 114.367 185.547 114.666 185.078 115.049C184.609 115.39 184.396 115.731 184.396 116.072V116.2C184.396 116.753 184.822 117.009 185.718 117.009H195.059C195.955 117.009 196.382 116.753 196.382 116.2V116.072C196.382 115.731 196.168 115.433 195.742 115.177H195.785ZM173.391 95.789H168.742C166.865 95.789 165.926 94.7237 165.926 92.6358V74.3984C165.926 72.8644 166.523 72.0974 167.675 72.0974H172.154C176.206 72.0974 179.661 73.2053 182.391 75.3784C185.164 77.5516 186.528 80.7474 186.528 84.9658C186.528 89.1843 185.334 90.974 182.903 92.8914C180.472 94.8089 177.315 95.789 173.348 95.789H173.391Z" fill="#F2F6F9"/>
<path d="M230.036 115.177C229.695 115.006 229.268 114.836 228.842 114.751C228.373 114.623 227.946 114.325 227.562 113.813C227.178 113.302 226.922 112.578 226.837 111.64L225.515 98.303C225.046 93.8289 223.638 90.3774 221.164 87.8634C218.733 85.3919 215.448 84.1562 211.396 84.1562C207.344 84.1562 205.041 84.9232 202.823 86.4146C200.604 87.906 199.495 89.6104 199.495 91.4853C199.495 93.3602 199.751 92.8488 200.221 93.2749C200.69 93.7437 201.33 93.9567 202.14 93.9567C202.95 93.9567 203.505 93.5732 204.017 92.7636C204.571 91.954 204.998 91.1018 205.382 90.1644C205.766 89.2269 206.491 88.3321 207.515 87.5651C208.538 86.7555 209.861 86.372 211.396 86.372C213.998 86.372 215.917 87.3947 217.154 89.3974C218.391 91.4001 219.245 94.468 219.628 98.6013L219.756 100.391C217.837 98.6013 215.064 97.7065 211.481 97.7065C207.898 97.7065 204.87 98.6013 202.567 100.306C200.263 102.053 199.112 104.482 199.154 107.635C199.154 110.788 200.306 113.302 202.567 115.092C204.827 116.881 207.856 117.776 211.609 117.776C215.363 117.776 219.586 116.2 221.292 113.089C221.42 114.836 221.889 116.029 222.614 116.626C223.382 117.222 224.576 117.52 226.155 117.52C229.012 117.52 230.463 117.052 230.463 116.114C230.463 115.177 230.292 115.475 229.908 115.305L230.036 115.177ZM218.562 113.43C217.197 114.836 215.406 115.56 213.188 115.56C210.97 115.56 208.879 114.708 207.387 113.046C205.894 111.385 205.126 109.297 205.126 106.783C205.126 104.269 205.851 103.033 207.259 101.754C208.709 100.476 210.543 99.7944 212.846 99.7944C215.15 99.7944 216.387 100.306 217.709 101.286C219.031 102.266 219.884 103.587 220.226 105.163L220.482 108.189C220.567 110.277 219.927 112.024 218.519 113.43H218.562Z" fill="#F2F6F9"/>
<path d="M254.477 85.605C253.368 84.625 251.875 84.1136 249.956 84.1136C245.648 84.1136 242.747 86.2868 241.212 90.6757V85.3067C241.212 84.1562 240.615 83.8154 239.463 84.3693L234.344 86.6703C233.662 87.0112 233.321 87.4373 233.321 87.8634V87.9912C233.321 88.2895 233.747 88.8008 234.643 89.4826C235.539 90.1644 236.008 90.974 236.008 91.9114V112.322C236.008 113.217 235.581 113.984 234.771 114.58C233.96 115.177 233.534 115.646 233.534 115.944V116.2C233.534 116.753 233.96 117.009 234.856 117.009H243.174C244.069 117.009 244.539 116.753 244.539 116.2V115.944C244.539 115.646 244.07 115.177 243.131 114.58C242.193 113.984 241.723 113.217 241.723 112.322V97.0247C241.723 94.3828 242.235 92.1671 243.259 90.42C244.283 88.673 245.648 87.7782 247.439 87.7782C249.231 87.7782 249.103 88.0338 249.657 88.5025C250.212 89.0139 250.553 89.5252 250.681 90.1217C250.852 90.7183 251.15 91.2296 251.577 91.741C252.003 92.2523 252.643 92.4653 253.368 92.4653C255.16 92.4653 256.055 91.4001 256.055 89.3121C256.055 87.2242 255.501 86.6277 254.435 85.605H254.477Z" fill="#F2F6F9"/>
<path d="M289.241 115.177C288.899 115.006 288.473 114.836 288.046 114.751C287.577 114.623 287.151 114.325 286.767 113.813C286.383 113.302 286.127 112.578 286.042 111.64L284.677 98.303C284.25 93.8289 282.8 90.3774 280.326 87.8634C277.895 85.3919 274.61 84.1562 270.558 84.1562C266.506 84.1562 264.202 84.9232 261.984 86.4146C259.766 87.906 258.657 89.6104 258.657 91.4853C258.657 93.3602 258.913 92.8488 259.382 93.2749C259.852 93.7437 260.491 93.9567 261.302 93.9567C262.112 93.9567 262.624 93.5732 263.179 92.7636C263.733 91.954 264.16 91.1018 264.544 90.1644C264.928 89.2269 265.653 88.3321 266.676 87.5651C267.7 86.7555 269.022 86.372 270.558 86.372C273.16 86.372 275.079 87.3947 276.316 89.3974C277.553 91.4001 278.406 94.468 278.79 98.6013L278.918 100.391C276.999 98.6013 274.226 97.7065 270.643 97.7065C267.06 97.7065 264.032 98.6013 261.728 100.306C259.425 102.053 258.273 104.482 258.359 107.635C258.359 110.788 259.51 113.302 261.771 115.092C264.032 116.881 267.06 117.776 270.814 117.776C274.568 117.776 278.79 116.2 280.496 113.089C280.624 114.836 281.094 116.029 281.861 116.626C282.629 117.222 283.824 117.52 285.402 117.52C288.26 117.52 289.71 117.052 289.71 116.114C289.71 115.177 289.539 115.475 289.155 115.305L289.241 115.177ZM277.724 113.43C276.316 114.836 274.525 115.56 272.349 115.56C270.174 115.56 268.041 114.708 266.548 113.046C265.056 111.385 264.288 109.297 264.288 106.783C264.288 104.269 265.013 103.033 266.421 101.754C267.871 100.476 269.705 99.7944 272.008 99.7944C274.312 99.7944 275.549 100.306 276.871 101.286C278.193 102.266 279.046 103.587 279.387 105.163L279.643 108.189C279.729 110.277 279.089 112.024 277.681 113.43H277.724Z" fill="#F2F6F9"/>
<path d="M317.051 102.692C315.644 101.243 313.938 100.263 311.933 99.7092C309.928 99.1552 307.923 98.6865 305.919 98.2178C303.914 97.7917 302.208 97.0673 300.8 96.1299C299.392 95.1498 298.667 93.8289 298.667 92.0818C298.667 90.3348 299.307 89.0565 300.629 87.906C301.952 86.7981 303.573 86.2442 305.577 86.2442C307.582 86.2442 308.99 86.6703 310.141 87.5225C311.293 88.3747 312.061 89.3121 312.445 90.3348C312.829 91.3575 313.298 92.2949 313.895 93.1471C314.492 93.9993 315.175 94.4254 315.985 94.4254C316.796 94.4254 317.222 94.2124 317.691 93.7437C318.16 93.2749 318.416 92.721 318.416 92.0818C318.416 90.1217 317.222 88.2895 314.791 86.6277C312.359 84.9658 309.203 84.1562 305.321 84.1562C301.44 84.1562 298.625 85.0511 296.236 86.7981C293.847 88.5878 292.696 90.7609 292.696 93.3602C292.696 95.9594 293.421 97.7065 294.786 99.1126C296.193 100.561 297.9 101.541 299.947 102.053C301.952 102.607 303.957 103.075 306.004 103.502C308.009 103.928 309.715 104.652 311.122 105.632C312.53 106.612 313.255 108.018 313.255 109.808C313.255 111.598 312.53 113.089 311.122 114.154C309.672 115.219 307.838 115.731 305.62 115.731C303.402 115.731 302.592 115.433 301.44 114.879C300.331 114.325 299.52 113.643 299.009 112.833C298.497 112.024 298.07 111.214 297.686 110.404C297.345 109.595 296.919 108.913 296.449 108.359C295.98 107.805 295.383 107.507 294.615 107.507C292.866 107.507 292.013 108.317 292.013 109.978C292.013 111.64 293.25 113.472 295.724 115.134C298.198 116.796 301.525 117.606 305.62 117.606C309.715 117.606 312.957 116.753 315.473 115.006C317.947 113.302 319.184 111.129 319.184 108.53C319.184 105.93 318.459 104.098 317.094 102.649L317.051 102.692Z" fill="#F2F6F9"/>
<path d="M92.7737 113.685C84.584 121.867 73.7924 126 63.0435 126V99.3683C66.1572 97.5786 69.1004 95.3629 71.745 92.6784C79.9347 84.4971 84.0722 73.7166 84.0722 62.9787H99.4705C108.769 79.043 106.551 99.9222 92.7737 113.685Z" fill="#F2F6F9"/>
<path d="M63.0435 83.9858L63.0435 99.3683C46.9627 108.657 26.0619 106.442 12.2845 92.6784C4.09484 84.4971 0 73.7592 0 62.9787H26.6591C28.4506 66.0893 30.6686 69.0294 33.3559 71.6713C41.5456 79.8526 52.3372 83.9858 63.0861 83.9858H63.0435Z" fill="#5CDCFF"/>
<path d="M99.5131 62.9787C97.7216 59.8681 95.5036 56.928 92.8164 54.2861C84.6267 46.1048 73.8351 41.9716 63.0861 41.9716V26.5891C79.1669 17.3 100.068 19.5157 113.845 33.279C122.035 41.4603 126.172 52.2408 126.172 62.9787H99.5131Z" fill="#5CDCFF"/>
<path d="M63.0435 0V26.6317C59.9297 28.4214 56.9865 30.6371 54.3419 33.3216C46.1523 41.5029 42.0148 52.2834 42.0148 63.0213H26.6165C17.3178 46.957 19.5358 26.0778 33.3132 12.3145C41.5456 4.09063 52.2945 0 63.0435 0Z" fill="#F2F6F9"/>
</svg>
