<svg width="180" height="62" viewBox="0 0 180 62" fill="none" xmlns="http://www.w3.org/2000/svg">
<path d="M93.5146 19.0668C92.9916 18.1489 92.3222 17.4814 91.4853 17.0641C90.6485 16.6469 89.728 16.2923 88.7238 16.0211C87.7197 15.7499 86.7364 15.5204 85.7322 15.3118C84.728 15.1032 83.8075 14.8529 82.9707 14.54C82.1339 14.2271 81.4644 13.7473 80.9414 13.1006C80.4184 12.433 80.1674 11.5986 80.1674 10.5764C80.1674 9.55425 80.6067 8.21916 81.5063 7.38472C82.4059 6.55029 83.6611 6.13308 85.251 6.13308C86.841 6.13308 87.3013 6.32082 88.0753 6.69632C88.8284 7.07181 89.3933 7.50989 89.7489 8.05227C90.1046 8.59465 90.3975 9.09531 90.6276 9.63769C90.8787 10.1592 91.1297 10.6181 91.4435 10.9728C91.7364 11.3483 92.113 11.536 92.5523 11.536C93.4519 11.536 93.9121 11.0979 93.9121 10.2218C93.9121 8.92842 93.1381 7.7185 91.5899 6.57115C90.0418 5.42381 87.9707 4.86057 85.3766 4.86057C82.7824 4.86057 80.8159 5.46553 79.3724 6.6546C77.9079 7.84366 77.1757 9.38736 77.1757 11.2648C77.1757 13.1423 77.4268 13.7055 77.9498 14.5817C78.4728 15.4579 79.1423 16.1045 79.9582 16.5009C80.7741 16.8972 81.6945 17.231 82.6987 17.4605C83.7029 17.7108 84.7071 17.9194 85.7113 18.1072C86.7155 18.2949 87.6151 18.5661 88.4519 18.879C89.2678 19.1919 89.9372 19.7135 90.4602 20.4019C90.9833 21.1111 91.2343 22.0081 91.2343 23.0929C91.2343 24.1777 90.7531 25.4502 89.7699 26.2637C88.7866 27.0773 87.5314 27.4945 85.9623 27.4945C84.3933 27.4945 83.682 27.3068 82.8243 26.9104C81.9665 26.5141 81.318 26.0343 80.8996 25.4919C80.4812 24.9287 80.1255 24.3654 79.8326 23.8022C79.5397 23.2389 79.2259 22.7383 78.9121 22.3419C78.5983 21.9456 78.2217 21.7161 77.8033 21.6952C77.4059 21.6952 77.092 21.8204 76.8828 22.0499C76.6527 22.2793 76.5481 22.6131 76.5481 23.0095C76.5481 24.2611 77.364 25.5336 79.0167 26.827C80.6695 28.1204 82.9289 28.7879 85.8368 28.7879C88.7448 28.7879 90.2092 28.2038 91.841 27.0356C93.4728 25.8674 94.2678 24.3237 94.2678 22.4045C94.2678 20.4853 94.0167 19.9429 93.4937 19.0459L93.5146 19.0668Z" fill="#F2F6F9"/>
<path d="M111.715 27.5988C111.548 27.5154 111.339 27.432 111.13 27.3902C110.9 27.3277 110.69 27.1816 110.502 26.9313C110.293 26.681 110.188 26.3263 110.146 25.8674L109.498 19.338C109.268 17.1476 108.577 15.437 107.364 14.2271C106.172 13.0171 104.561 12.4122 102.573 12.4122C100.586 12.4122 99.4561 12.7877 98.3682 13.5178C97.2803 14.2479 96.7364 15.0824 96.7364 16.0002C96.7364 16.9181 96.8619 16.6678 97.092 16.8764C97.3222 17.085 97.636 17.2102 98.0335 17.2102C98.4309 17.2102 98.7029 17.0016 98.954 16.6261C99.2259 16.2297 99.4351 15.8125 99.6234 15.3535C99.8117 14.8946 100.146 14.4774 100.669 14.081C101.172 13.6847 101.82 13.4969 102.573 13.4969C103.849 13.4969 104.791 13.9976 105.397 14.9781C106.004 15.9585 106.423 17.4605 106.611 19.484L106.674 20.3601C105.732 19.484 104.372 19.0459 102.615 19.0459C100.858 19.0459 99.3724 19.4631 98.2427 20.3184C97.113 21.1737 96.5481 22.3628 96.59 23.9065C96.59 25.4502 97.1548 26.681 98.2636 27.5571C99.3724 28.4333 100.858 28.8714 102.699 28.8714C104.54 28.8714 106.611 28.0995 107.448 26.5767C107.51 27.432 107.741 27.9952 108.117 28.3081C108.494 28.6002 109.079 28.7462 109.854 28.7462C111.255 28.7462 111.967 28.5167 111.967 28.0578C111.967 27.5988 111.883 27.7449 111.695 27.6614L111.715 27.5988ZM106.088 26.7227C105.418 27.4111 104.519 27.7657 103.452 27.7657C102.385 27.7657 101.339 27.3485 100.607 26.5349C99.8745 25.7214 99.4979 24.6992 99.4979 23.4684C99.4979 22.2376 99.8536 21.6327 100.544 21.0068C101.234 20.381 102.155 20.0472 103.285 20.0472C104.414 20.0472 105.021 20.2976 105.669 20.7774C106.318 21.2572 106.736 21.883 106.904 22.6757L107.029 24.1568C107.071 25.179 106.757 26.0551 106.067 26.7435L106.088 26.7227Z" fill="#F2F6F9"/>
<path d="M125.356 6.32082L124.833 5.27778C124.54 4.75626 124.163 4.67282 123.64 5.04831L117.845 9.17875C117.552 9.42908 117.49 9.67941 117.657 9.97146C117.824 10.2427 118.117 10.3052 118.515 10.2009L124.895 7.38472C125.167 7.30128 125.335 7.15526 125.397 6.96751C125.481 6.77976 125.46 6.57115 125.356 6.34168V6.32082ZM129.561 27.5571C129.372 27.4737 129.163 27.4111 128.933 27.3694C128.703 27.3277 128.494 27.1816 128.305 26.8896C128.096 26.5975 128.013 26.1803 128.013 25.6379V12.892C128.013 12.5165 127.72 12.3913 127.155 12.4956L124.351 12.9963C124.017 13.0589 123.849 13.2257 123.849 13.4969V13.6012C123.849 13.7473 124.059 13.9976 124.498 14.3314C124.916 14.6651 125.146 15.0615 125.146 15.5204V22.5505C125.146 24.0316 124.749 25.2416 123.954 26.1594C123.159 27.0773 122.155 27.5363 120.983 27.5363C119.812 27.5363 118.766 27.0147 118.096 25.9717C117.427 24.9287 117.092 23.4684 117.092 21.5492L117.134 12.9128C117.134 12.5373 116.841 12.4122 116.255 12.5165L113.494 13.0171C113.159 13.0797 112.992 13.2466 112.992 13.5178V13.6221C112.992 13.7473 113.201 13.9767 113.598 14.3105C113.996 14.6443 114.205 15.0406 114.205 15.5204V21.3406C114.205 23.7187 114.749 25.5753 115.858 26.8687C116.967 28.1621 118.452 28.8296 120.293 28.8296C122.134 28.8296 124.351 27.9118 125.356 26.076L125.418 26.2637C125.356 27.8909 126.151 28.7045 127.824 28.7045C129.498 28.7045 129.874 28.475 129.874 28.0161C129.874 27.5571 129.77 27.6823 129.582 27.5988L129.561 27.5571Z" fill="#F2F6F9"/>
<path d="M147.636 27.3277C147.238 26.9939 147.029 26.6184 147.029 26.1803V4.40163C147.029 3.81753 146.695 3.65064 146.004 3.90097L143.326 4.79798C142.992 4.94401 142.824 5.13176 142.824 5.36123V5.42381C142.824 5.56983 142.95 5.71586 143.18 5.84102C143.41 5.96619 143.64 6.15394 143.87 6.40427C144.1 6.6546 144.226 6.96751 144.226 7.36386V14.5191C142.971 13.1006 141.381 12.3913 139.456 12.3913C137.531 12.3913 135.418 13.1632 133.954 14.686C132.49 16.2297 131.736 18.1906 131.736 20.5688C131.736 22.9469 132.49 24.9704 133.975 26.5141C135.46 28.0369 137.259 28.8088 139.351 28.8088C141.444 28.8088 141.318 28.6002 142.197 28.1621C143.075 27.724 143.808 27.119 144.351 26.3055L144.414 27.9535C144.456 28.3081 144.644 28.475 144.979 28.475H147.741C148.075 28.475 148.243 28.3498 148.243 28.1204V28.0161C148.243 27.8909 148.033 27.6614 147.636 27.3277ZM144.226 22.9886C144.226 24.4489 143.787 25.6171 142.929 26.4515C142.05 27.2859 141.109 27.724 140.042 27.724C138.41 27.724 137.092 26.9104 136.067 25.3459C135.042 23.7813 134.54 21.8621 134.582 19.5883C134.602 17.7525 135.063 16.2714 135.941 15.1449C136.82 14.0185 137.992 13.4552 139.414 13.4552C140.837 13.4552 141.841 13.935 142.782 14.9155C143.745 15.8959 144.205 16.939 144.205 18.0446V21.3197L144.247 22.9886H144.205H144.226Z" fill="#F2F6F9"/>
<path d="M164.435 23.5727C164.163 23.5101 163.954 23.6144 163.808 23.8439C162.929 25.7422 161.36 26.7018 159.1 26.7018C156.841 26.7018 156.611 26.3055 155.649 25.5128C154.686 24.7201 154.038 23.5936 153.661 22.175L162.782 19.1919C163.808 18.8373 164.331 18.1906 164.331 17.2519C164.331 16.3131 163.766 14.8738 162.657 13.8933C161.548 12.892 160.063 12.3913 158.201 12.3913C156.339 12.3913 154.163 13.1632 152.678 14.7069C151.192 16.2506 150.439 18.1698 150.439 20.4644C150.439 22.7591 151.172 24.9704 152.636 26.5141C154.1 28.0369 155.92 28.8088 158.075 28.8088C160.23 28.8088 161.485 28.3081 162.657 27.3277C163.828 26.3472 164.519 25.2624 164.77 24.1151C164.812 23.8022 164.707 23.6353 164.435 23.5727ZM153.305 19.4214C153.305 17.7108 153.703 16.2923 154.519 15.1449C155.335 13.9976 156.402 13.4344 157.72 13.4344C159.038 13.4344 159.686 13.8724 160.439 14.7486C161.192 15.6247 161.569 16.48 161.569 17.3145C161.569 18.1489 161.297 18.2532 160.774 18.4618L153.431 21.0903C153.347 20.6313 153.305 20.0681 153.305 19.4214Z" fill="#F2F6F9"/>
<path d="M178.954 21.4658C178.264 20.7565 177.427 20.2767 176.443 20.0055C175.46 19.7343 174.477 19.5049 173.494 19.2754C172.51 19.0668 171.674 18.7121 170.983 18.2323C170.293 17.7734 169.937 17.1059 169.937 16.2506C169.937 15.3953 170.251 14.7694 170.9 14.2062C171.548 13.6638 172.364 13.3926 173.326 13.3926C174.289 13.3926 175 13.6012 175.565 14.0185C176.13 14.4357 176.506 14.8946 176.695 15.3953C176.883 15.8959 177.113 16.3549 177.406 16.7721C177.699 17.1893 178.033 17.3979 178.431 17.3979C178.828 17.3979 179.038 17.2936 179.268 17.0641C179.498 16.8555 179.623 16.5635 179.623 16.2506C179.623 15.291 179.038 14.394 177.845 13.5804C176.653 12.7668 175.105 12.3705 173.201 12.3705C171.297 12.3705 169.916 12.8085 168.745 13.6638C167.573 14.5191 167.008 15.6039 167.008 16.8555C167.008 18.1072 167.343 18.9833 168.054 19.6717C168.745 20.381 169.582 20.8608 170.565 21.1111C171.548 21.3823 172.531 21.6118 173.536 21.8204C174.519 22.029 175.356 22.3628 176.046 22.8634C176.736 23.3432 177.092 24.0316 177.092 24.9078C177.092 25.784 176.736 26.5141 176.046 27.0356C175.335 27.5571 174.435 27.8074 173.347 27.8074C172.259 27.8074 171.862 27.6614 171.297 27.3902C170.753 27.119 170.356 26.7853 170.105 26.3889C169.854 25.9926 169.644 25.5962 169.456 25.1999C169.289 24.8035 169.079 24.4697 168.849 24.1985C168.619 23.9273 168.305 23.7813 167.95 23.7813C167.092 23.7813 166.674 24.1777 166.674 24.9912C166.674 25.8048 167.28 26.7018 168.494 27.5154C169.707 28.329 171.339 28.7253 173.347 28.7253C175.356 28.7253 176.946 28.3081 178.18 27.4528C179.393 26.6184 180 25.5545 180 24.282C180 23.0095 179.644 22.1125 178.954 21.4032V21.4658Z" fill="#F2F6F9"/>
<path d="M96.0251 56.3867C95.8159 56.2616 95.523 56.0947 95.1674 55.8652C94.8117 55.6358 94.4979 55.3437 94.2678 54.9891L88.9958 47.7295C90.774 47.2289 92.1548 46.3944 93.1171 45.2262C94.0795 44.058 94.5607 42.7229 94.5607 41.1792C94.5397 38.8011 93.6192 36.9862 91.7991 35.7763C89.9791 34.5663 87.5732 33.9614 84.6234 33.9614H77.8661C77.4268 33.9614 77.2176 34.0865 77.2176 34.3577V34.4203C77.2176 34.5663 77.4059 34.8167 77.8033 35.1296C78.2008 35.4425 78.3891 35.818 78.3891 36.2561V54.9682C78.3891 55.4063 78.2008 55.7818 77.8033 56.0947C77.4059 56.4076 77.2176 56.6371 77.2176 56.804V56.8666C77.2176 57.1377 77.4477 57.2629 77.8661 57.2629H82.0084C82.4477 57.2629 82.6778 57.1377 82.6778 56.8666V56.804C82.6778 56.6579 82.5732 56.4911 82.3431 56.345C82.113 56.199 81.9038 56.0112 81.6945 55.7818C81.4853 55.5523 81.3807 55.2811 81.3807 54.9682V48.2719L85.3347 48.2093C85.7113 48.2093 85.9833 48.2093 86.1506 48.1676L91.0879 54.9682C91.2761 55.4063 91.3389 55.6983 91.2552 55.8444C91.1715 55.9904 91.0042 56.1364 90.774 56.3242C90.5439 56.4911 90.4393 56.6579 90.4393 56.8248V56.8874C90.4393 57.1586 90.6485 57.2838 91.0879 57.2838H95.6694C96.1088 57.2838 96.318 57.1586 96.318 56.8874V56.8248C96.318 56.6579 96.2134 56.5119 96.0042 56.3867H96.0251ZM85.0418 46.8951H82.7615C81.841 46.8951 81.3807 46.3736 81.3807 45.3514V36.423C81.3807 35.672 81.6736 35.2965 82.2385 35.2965H84.4351C86.4226 35.2965 88.1171 35.8389 89.4561 36.9028C90.8159 37.9667 91.4853 39.5312 91.4853 41.5964C91.4853 43.6617 90.8996 44.5378 89.7071 45.4765C88.5146 46.4153 86.9665 46.8951 85.0209 46.8951H85.0418Z" fill="#F2F6F9"/>
<path d="M112.824 56.3867C112.657 56.3033 112.448 56.2199 112.238 56.1781C112.008 56.1156 111.799 55.9695 111.611 55.7192C111.423 55.4689 111.297 55.1142 111.255 54.6553L110.607 48.1259C110.377 45.9355 109.686 44.2458 108.473 43.015C107.28 41.805 105.669 41.2001 103.682 41.2001C101.695 41.2001 100.565 41.5756 99.477 42.3057C98.3891 43.0358 97.8452 43.8703 97.8452 44.7881C97.8452 45.706 97.9707 45.4557 98.2008 45.6643C98.4309 45.8938 98.7448 45.9981 99.1422 45.9981C99.5397 45.9981 99.8117 45.8103 100.063 45.414C100.335 45.0176 100.544 44.6004 100.732 44.1415C100.92 43.6825 101.276 43.2444 101.778 42.8689C102.28 42.4726 102.929 42.2848 103.682 42.2848C104.958 42.2848 105.9 42.7855 106.506 43.766C107.113 44.7464 107.531 46.2484 107.72 48.2719L107.782 49.1481C106.841 48.2719 105.481 47.8338 103.724 47.8338C101.967 47.8338 100.481 48.2719 99.3514 49.1063C98.2217 49.9616 97.6569 51.1507 97.6778 52.6944C97.6778 54.2381 98.2427 55.4689 99.3514 56.345C100.46 57.2212 101.946 57.6593 103.787 57.6593C105.628 57.6593 107.699 56.8874 108.536 55.3646C108.598 56.2199 108.828 56.804 109.184 57.096C109.561 57.3881 110.146 57.5341 110.92 57.5341C112.322 57.5341 113.033 57.3046 113.033 56.8457C113.033 56.3867 112.95 56.5328 112.761 56.4493L112.824 56.3867ZM107.197 55.5315C106.527 56.2199 105.649 56.5745 104.561 56.5745C103.473 56.5745 102.448 56.1573 101.715 55.3437C100.983 54.5301 100.607 53.508 100.607 52.2772C100.607 51.0464 100.962 50.4414 101.653 49.8156C102.364 49.1898 103.264 48.856 104.393 48.856C105.523 48.856 106.13 49.1063 106.778 49.5861C107.427 50.0659 107.845 50.7126 108.013 51.4845L108.138 52.9656C108.18 53.9878 107.866 54.843 107.176 55.5315H107.197Z" fill="#F2F6F9"/>
<path d="M124.812 41.9094C124.268 41.4296 123.536 41.1792 122.594 41.1792C120.481 41.1792 119.059 42.2431 118.305 44.3918V41.7633C118.305 41.2001 118.013 41.0332 117.448 41.3044L114.937 42.4309C114.603 42.5978 114.435 42.8064 114.435 43.015V43.0776C114.435 43.2236 114.644 43.4739 115.084 43.8077C115.523 44.1415 115.753 44.5378 115.753 44.9968V54.9891C115.753 55.4272 115.544 55.8026 115.146 56.0947C114.749 56.3867 114.54 56.6162 114.54 56.7622V56.8874C114.54 57.1586 114.749 57.2838 115.188 57.2838H119.268C119.707 57.2838 119.937 57.1586 119.937 56.8874V56.7622C119.937 56.6162 119.707 56.3867 119.247 56.0947C118.787 55.8026 118.556 55.4272 118.556 54.9891V47.5C118.556 46.2067 118.808 45.1219 119.31 44.2666C119.812 43.4113 120.481 42.9733 121.36 42.9733C122.238 42.9733 122.176 43.0984 122.448 43.3279C122.72 43.5782 122.887 43.8285 122.95 44.1206C123.033 44.4126 123.18 44.663 123.389 44.9133C123.598 45.1636 123.912 45.2679 124.268 45.2679C125.146 45.2679 125.586 44.7464 125.586 43.7242C125.586 42.7021 125.314 42.41 124.791 41.9094H124.812Z" fill="#F2F6F9"/>
<path d="M141.862 56.3867C141.695 56.3033 141.485 56.2199 141.276 56.1781C141.046 56.1156 140.837 55.9695 140.649 55.7192C140.46 55.4689 140.335 55.1142 140.293 54.6553L139.623 48.1259C139.414 45.9355 138.703 44.2458 137.49 43.015C136.297 41.805 134.686 41.2001 132.699 41.2001C130.711 41.2001 129.582 41.5756 128.494 42.3057C127.406 43.0358 126.862 43.8703 126.862 44.7881C126.862 45.706 126.987 45.4557 127.218 45.6643C127.448 45.8938 127.761 45.9981 128.159 45.9981C128.556 45.9981 128.808 45.8103 129.079 45.414C129.351 45.0176 129.561 44.6004 129.749 44.1415C129.937 43.6825 130.293 43.2444 130.795 42.8689C131.297 42.4726 131.946 42.2848 132.699 42.2848C133.975 42.2848 134.916 42.7855 135.523 43.766C136.13 44.7464 136.548 46.2484 136.736 48.2719L136.799 49.1481C135.858 48.2719 134.498 47.8338 132.741 47.8338C130.983 47.8338 129.498 48.2719 128.368 49.1063C127.238 49.9616 126.674 51.1507 126.715 52.6944C126.715 54.2381 127.28 55.4689 128.389 56.345C129.498 57.2212 130.983 57.6593 132.824 57.6593C134.665 57.6593 136.736 56.8874 137.573 55.3646C137.636 56.2199 137.866 56.804 138.243 57.096C138.619 57.3881 139.205 57.5341 139.979 57.5341C141.381 57.5341 142.092 57.3046 142.092 56.8457C142.092 56.3867 142.008 56.5328 141.82 56.4493L141.862 56.3867ZM136.213 55.5315C135.523 56.2199 134.644 56.5745 133.577 56.5745C132.51 56.5745 131.464 56.1573 130.732 55.3437C130 54.5301 129.623 53.508 129.623 52.2772C129.623 51.0464 129.979 50.4414 130.669 49.8156C131.381 49.1898 132.28 48.856 133.41 48.856C134.54 48.856 135.146 49.1063 135.795 49.5861C136.443 50.0659 136.862 50.7126 137.029 51.4845L137.155 52.9656C137.197 53.9878 136.883 54.843 136.192 55.5315H136.213Z" fill="#F2F6F9"/>
<path d="M155.502 50.2745C154.812 49.5653 153.975 49.0855 152.992 48.8143C152.008 48.5431 151.025 48.3136 150.042 48.0841C149.059 47.8755 148.222 47.5209 147.531 47.062C146.841 46.5822 146.485 45.9355 146.485 45.0802C146.485 44.2249 146.799 43.5991 147.448 43.0358C148.096 42.4935 148.891 42.2223 149.874 42.2223C150.858 42.2223 151.548 42.4309 152.113 42.8481C152.678 43.2653 153.054 43.7242 153.243 44.2249C153.431 44.7256 153.661 45.1845 153.954 45.6017C154.247 46.0189 154.582 46.2275 154.979 46.2275C155.377 46.2275 155.586 46.1232 155.816 45.8938C156.046 45.6643 156.172 45.3931 156.172 45.0802C156.172 44.1206 155.586 43.2236 154.393 42.41C153.201 41.5964 151.653 41.2001 149.749 41.2001C147.845 41.2001 146.464 41.6382 145.293 42.4935C144.121 43.3696 143.556 44.4335 143.556 45.706C143.556 46.9785 143.912 47.8338 144.582 48.5222C145.272 49.2315 146.109 49.7113 147.113 49.9616C148.096 50.2328 149.079 50.4623 150.084 50.6709C151.067 50.8795 151.904 51.2341 152.594 51.7139C153.285 52.1937 153.64 52.8821 153.64 53.7583C153.64 54.6344 153.285 55.3646 152.594 55.8861C151.883 56.4076 150.983 56.6579 149.895 56.6579C148.808 56.6579 148.41 56.5119 147.845 56.2407C147.301 55.9695 146.904 55.6358 146.653 55.2394C146.402 54.843 146.192 54.4467 146.004 54.0503C145.837 53.654 145.628 53.3202 145.397 53.049C145.167 52.7778 144.874 52.6318 144.498 52.6318C143.64 52.6318 143.222 53.0282 143.222 53.8417C143.222 54.6553 143.828 55.5523 145.042 56.3659C146.255 57.1795 147.887 57.5758 149.895 57.5758C151.904 57.5758 153.494 57.1586 154.728 56.3033C155.941 55.4689 156.548 54.405 156.548 53.1325C156.548 51.86 156.192 50.9629 155.523 50.2537L155.502 50.2745Z" fill="#F2F6F9"/>
<path d="M45.5021 55.6566C41.4854 59.6619 36.1925 61.6854 30.9205 61.6854V48.6474C32.4477 47.7712 33.8912 46.6865 35.1883 45.3722C39.205 41.367 41.2343 36.0892 41.2343 30.8323H48.7866C53.3473 38.6968 52.2594 48.9186 45.5021 55.6566Z" fill="#F2F6F9"/>
<path d="M30.9205 41.1166V48.6474C23.0335 53.195 12.7824 52.1103 6.0251 45.3722C2.00837 41.367 0 36.11 0 30.8323H13.0753C13.954 32.3551 15.0418 33.7945 16.3598 35.0879C20.3766 39.0931 25.6695 41.1166 30.9414 41.1166H30.9205Z" fill="#5CDCFF"/>
<path d="M48.8075 30.8323C47.9289 29.3094 46.841 27.87 45.523 26.5767C41.5063 22.5714 36.2134 20.5479 30.9414 20.5479V13.0171C38.8284 8.46949 49.0795 9.55425 55.8368 16.2923C59.8536 20.2976 61.8828 25.5753 61.8828 30.8323H48.8075Z" fill="#5CDCFF"/>
<path d="M30.9205 0V13.038C29.3933 13.9142 27.9498 14.9989 26.6527 16.3131C22.636 20.3184 20.6067 25.5962 20.6067 30.8531H13.0544C8.49372 22.9886 9.58159 12.7668 16.3389 6.02877C20.3766 2.00264 25.6485 0 30.9205 0Z" fill="#F2F6F9"/>
</svg>
